<svg width="24" height="25" viewBox="0 0 24 25" fill="none" xmlns="http://www.w3.org/2000/svg">
<g clip-path="url(#clip0_471_88)">
<rect width="24" height="24" transform="translate(0 0.865479)" fill="black"/>
<path d="M21.2806 19.2894C20.9327 20.093 20.521 20.8327 20.044 21.5127C19.3938 22.4398 18.8614 23.0815 18.4511 23.4378C17.815 24.0228 17.1336 24.3223 16.4039 24.3394C15.88 24.3394 15.2482 24.1903 14.5128 23.8879C13.775 23.5869 13.0969 23.4378 12.4769 23.4378C11.8267 23.4378 11.1293 23.5869 10.3834 23.8879C9.63638 24.1903 9.03456 24.3479 8.57444 24.3635C7.87466 24.3933 7.17716 24.0852 6.48093 23.4378C6.03656 23.0503 5.48075 22.3858 4.8149 21.4446C4.10051 20.4394 3.51317 19.2738 3.05304 17.945C2.56026 16.5097 2.31323 15.1198 2.31323 13.7742C2.31323 12.2328 2.6463 10.9034 3.31342 9.78932C3.83772 8.89448 4.53522 8.1886 5.4082 7.67041C6.28118 7.15222 7.22443 6.88815 8.24024 6.87125C8.79605 6.87125 9.52493 7.04318 10.4307 7.38107C11.3339 7.7201 11.9139 7.89203 12.1681 7.89203C12.3582 7.89203 13.0025 7.69099 14.0947 7.29021C15.1275 6.91853 15.9992 6.76463 16.7133 6.82526C18.6484 6.98142 20.1022 7.74423 21.069 9.11851C19.3384 10.1671 18.4823 11.6358 18.4993 13.5199C18.515 14.9874 19.0474 16.2087 20.0937 17.1783C20.5679 17.6284 21.0974 17.9762 21.6866 18.2232C21.5588 18.5938 21.4239 18.9487 21.2806 19.2894ZM16.8425 1.82561C16.8425 2.97587 16.4223 4.04987 15.5847 5.04395C14.5738 6.22571 13.3512 6.90859 12.0253 6.80084C12.0084 6.66284 11.9986 6.51761 11.9986 6.36499C11.9986 5.26074 12.4793 4.07897 13.333 3.11272C13.7592 2.62349 14.3013 2.2167 14.9586 1.89219C15.6145 1.57253 16.2349 1.39575 16.8184 1.36548C16.8354 1.51925 16.8425 1.67303 16.8425 1.82559V1.82561Z" fill="white"/>
</g>
<defs>
<clipPath id="clip0_471_88">
<rect width="24" height="24" fill="white" transform="translate(0 0.865479)"/>
</clipPath>
</defs>
</svg>
