<svg width="19" height="18" viewBox="0 0 19 18" fill="none" xmlns="http://www.w3.org/2000/svg">
<path d="M5.40648 4.96336C4.43668 3.98036 4.43668 2.38382 5.40648 1.40082C6.37628 0.417825 7.94644 0.417825 8.91624 1.40082L9.5001 1.99458L10.084 1.40082C11.0538 0.417825 12.6239 0.417825 13.5937 1.40082C14.5635 2.38382 14.5635 3.98036 13.5937 4.96336L10.2423 8.36757C10.0378 8.57538 9.77059 8.67764 9.5001 8.67764C9.22961 8.67764 8.96242 8.57538 8.75791 8.36757L5.40648 4.96336ZM18.7429 11.5409C19.175 12.128 19.0497 12.9527 18.4625 13.3848L14.2864 16.4624C13.5146 17.0298 12.5843 17.3366 11.6244 17.3366H6.3334H1.05557C0.471706 17.3366 0 16.8649 0 16.281V14.1699C0 13.586 0.471706 13.1143 1.05557 13.1143H2.26947L3.75056 11.9268C4.49935 11.3265 5.42957 11.0032 6.38948 11.0032H8.97232H9.5001H11.6112C12.1951 11.0032 12.6668 11.4749 12.6668 12.0588C12.6668 12.6426 12.1951 13.1143 11.6112 13.1143H9.5001H8.97232C8.68204 13.1143 8.44454 13.3518 8.44454 13.6421C8.44454 13.9324 8.68204 14.1699 8.97232 14.1699H12.9505L16.899 11.2605C17.4861 10.8284 18.3108 10.9537 18.7429 11.5409ZM6.38618 13.1143H6.35649C6.36639 13.1143 6.37628 13.1143 6.38618 13.1143Z" fill="white"/>
</svg>
