<svg width="25" height="25" viewBox="0 0 25 25" fill="none" xmlns="http://www.w3.org/2000/svg">
<path fill-rule="evenodd" clip-rule="evenodd" d="M12.5 0C5.59644 0 0 5.59644 0 12.5C0 14.5548 0.49648 16.4962 1.37679 18.2084C1.43187 18.3155 1.43306 18.4178 1.40716 18.4911L0.327763 21.5457C-0.307293 23.343 1.4239 25.0741 3.2211 24.4391L6.15434 23.4026C6.2305 23.3757 6.33733 23.3783 6.4471 23.4392C8.24129 24.4339 10.3058 25 12.5 25C19.4036 25 25 19.4036 25 12.5C25 5.59644 19.4036 0 12.5 0Z" fill="#FFC8C8"/>
<circle cx="6.74402" cy="12.558" r="1.45349" fill="#FE0101"/>
<circle cx="12.558" cy="12.558" r="1.45349" fill="#FE0101"/>
<circle cx="18.3719" cy="12.558" r="1.45349" fill="#FE0101"/>
</svg>
