<svg width="131" height="112" viewBox="0 0 131 112" fill="none" xmlns="http://www.w3.org/2000/svg">
<g filter="url(#filter0_f_147_416)">
<ellipse cx="65.3652" cy="81.3175" rx="43.453" ry="7.98349" fill="#FF8C8C"/>
</g>
<path d="M66.9736 91.0692C91.8604 91.0692 112.035 71.8552 112.035 48.1536C112.035 24.4519 91.8604 5.23792 66.9736 5.23792C42.0868 5.23792 21.9121 24.4519 21.9121 48.1536C21.9121 71.8552 42.0868 91.0692 66.9736 91.0692Z" fill="url(#paint0_linear_147_416)"/>
<path d="M101.833 22.5859H44.5977V49.4862H101.833V22.5859Z" fill="url(#paint1_linear_147_416)"/>
<path d="M101.832 22.5859H107.577C111.322 22.5859 114.914 24.0028 117.562 26.5249C120.21 29.047 121.698 32.4677 121.698 36.0345C121.698 39.6013 120.21 43.0219 117.562 45.544C114.914 48.0661 111.322 49.483 107.577 49.483H101.832V22.5859Z" fill="url(#paint2_linear_147_416)"/>
<path d="M105.549 26.5431H108.835C111.363 26.5431 113.787 27.4994 115.574 29.2016C117.362 30.9037 118.366 33.2124 118.366 35.6197V36.4529C118.366 38.8601 117.362 41.1688 115.574 42.871C113.787 44.5732 111.363 45.5295 108.835 45.5295H105.549V26.5431Z" fill="url(#paint3_linear_147_416)"/>
<path d="M101.833 27.1003H49.4043V49.4861H101.833V27.1003Z" fill="url(#paint4_linear_147_416)"/>
<rect x="30.9219" y="53.9639" width="21.2566" height="25.927" fill="url(#paint5_linear_147_416)"/>
<rect x="57.0273" y="53.9639" width="21.2566" height="25.927" fill="url(#paint6_linear_147_416)"/>
<rect x="83.1328" y="53.9639" width="13.7982" height="25.927" fill="url(#paint7_linear_147_416)"/>
<path d="M101.834 22.5859H96.9473V49.4862H101.834V22.5859Z" fill="url(#paint8_linear_147_416)"/>
<path d="M57.0257 49.3474L52.1777 49.3474L52.1777 84.5087L57.0257 84.5087L57.0257 49.3474Z" fill="url(#paint9_linear_147_416)"/>
<path fill-rule="evenodd" clip-rule="evenodd" d="M80.5206 53.9646V49.3474H31.1296V49.3475H30.8205C28.1992 49.3475 26.0742 51.4725 26.0742 54.0938L26.0742 79.7625C26.0742 82.3838 28.1992 84.5088 30.8205 84.5088H31.13V84.5085H80.5206V79.8914H31.13L31.13 53.9646H80.5206Z" fill="url(#paint10_linear_147_416)"/>
<path fill-rule="evenodd" clip-rule="evenodd" d="M83.1312 49.3474H83.0295C80.4082 49.3474 78.2832 51.4724 78.2832 54.0937L78.2832 84.5087H83.1312L83.1312 49.3474ZM83.1314 49.3474H96.9295H101.778L101.778 79.7624C101.778 82.3837 99.6526 84.5087 97.0313 84.5087H96.9295L96.9295 84.5085H83.1314V79.8914H96.9295V53.9646H83.1314V49.3474Z" fill="url(#paint11_linear_147_416)"/>
<path d="M48.4336 49.5432V49.5939V51.1938V62.8492H61.2128C61.7371 62.8492 62.1621 62.4242 62.1621 61.8999V51.1938V50.4925C62.1621 49.9682 61.7371 49.5432 61.2128 49.5432H48.4336Z" fill="url(#paint12_linear_147_416)"/>
<path d="M48.2012 49.5432C47.6769 49.5432 47.252 49.9682 47.252 50.4925V61.8999C47.252 62.4242 47.6769 62.8492 48.2012 62.8492H60.9804V49.5432H48.2012Z" fill="url(#paint13_linear_147_416)"/>
<path d="M57.5385 50.8167H50.6973C49.6488 50.8167 48.7988 51.6666 48.7988 52.7152V59.5693C48.7988 60.6178 49.6488 61.4678 50.6973 61.4678H57.5385C58.587 61.4678 59.437 60.6178 59.437 59.5693V52.7152C59.437 51.6666 58.587 50.8167 57.5385 50.8167Z" fill="url(#paint14_linear_147_416)"/>
<g filter="url(#filter1_d_147_416)">
<path d="M23.0898 40.5382L28.2526 52.6308C28.3231 52.7966 28.4273 52.9474 28.5591 53.0748C28.691 53.2021 28.848 53.3035 29.021 53.3729C29.1941 53.4424 29.3798 53.4786 29.5676 53.4796C29.7554 53.4805 29.9416 53.4462 30.1154 53.3785L41.685 48.9019C42.0368 48.7656 42.3174 48.5018 42.4652 48.1686C42.613 47.8354 42.6159 47.4599 42.4734 47.1246L36.5056 33.147C36.3625 32.8128 36.0859 32.5463 35.7366 32.4061C35.3874 32.2659 34.9939 32.2635 34.6428 32.3994L25.0292 36.1219L23.0898 40.5382Z" fill="url(#paint15_linear_147_416)"/>
</g>
<g filter="url(#filter2_d_147_416)">
<path d="M104.859 33.435L99.6966 45.5276C99.6261 45.6934 99.522 45.8443 99.3901 45.9716C99.2582 46.099 99.1013 46.2003 98.9282 46.2698C98.7551 46.3392 98.5694 46.3755 98.3816 46.3764C98.1938 46.3774 98.0076 46.343 97.8338 46.2753L86.2642 41.7988C85.9124 41.6624 85.6318 41.3987 85.484 41.0655C85.3362 40.7322 85.3333 40.3568 85.4759 40.0215L91.4436 26.0439C91.5867 25.7096 91.8633 25.4432 92.2126 25.303C92.5619 25.1628 92.9553 25.1604 93.3064 25.2962L102.92 29.0187L104.859 33.435Z" fill="url(#paint16_linear_147_416)"/>
</g>
<path d="M23.0898 40.5378L26.3731 39.2674L25.0325 36.1215L23.0898 40.5378Z" fill="url(#paint17_linear_147_416)"/>
<path d="M104.859 33.4346L101.576 32.1642L102.917 29.0183L104.859 33.4346Z" fill="url(#paint18_linear_147_416)"/>
<path d="M55.5193 56.5892C55.9426 56.3058 56.2601 55.9013 56.4257 55.4344C56.5913 54.9675 56.5965 54.4625 56.4404 53.9926C56.2843 53.5228 55.9752 53.1125 55.5577 52.8213C55.1403 52.53 54.6363 52.373 54.1188 52.373C53.6014 52.373 53.0973 52.53 52.6799 52.8213C52.2625 53.1125 51.9533 53.5228 51.7972 53.9926C51.6411 54.4625 51.6463 54.9675 51.8119 55.4344C51.9775 55.9013 52.295 56.3058 52.7184 56.5892L51.6738 60.0139H56.5605L55.5193 56.5892Z" fill="url(#paint19_linear_147_416)"/>
<path d="M85.6174 20.6505C85.6174 21.1488 85.5389 21.6444 85.3846 22.1205C85.1345 22.884 84.6926 23.5778 84.0972 24.1418C83.9224 24.3103 83.7345 24.4659 83.535 24.6075C83.4039 24.7048 83.2661 24.7937 83.1225 24.8736C82.9795 24.9571 82.8318 25.0333 82.6801 25.1017C82.4539 25.208 82.2192 25.297 81.9782 25.3678C81.4782 25.5148 80.958 25.5895 80.4347 25.5896H79.47V49.3978H52.5254V20.1341C52.5298 18.9633 53.0201 17.8416 53.8894 17.0137C54.7587 16.1858 55.9365 15.7188 57.1659 15.7146H80.4214C81.0692 15.7123 81.7116 15.8273 82.3142 16.0536C82.4813 16.1154 82.6446 16.1862 82.8032 16.2659C82.883 16.3039 82.9595 16.3451 83.036 16.3894C83.0989 16.4223 83.16 16.4583 83.219 16.4972C83.5333 16.6865 83.8245 16.9085 84.0872 17.1593C84.4399 17.4959 84.7401 17.8789 84.9787 18.2966C85.14 18.5781 85.2715 18.8742 85.3713 19.1805L85.4411 19.4181C85.4841 19.5769 85.5185 19.7376 85.5442 19.8997C85.589 20.1478 85.6134 20.3988 85.6174 20.6505Z" fill="url(#paint20_linear_147_416)"/>
<path d="M85.6161 20.6505C85.6161 21.1488 85.5376 21.6443 85.3833 22.1205C85.2812 22.426 85.1498 22.7219 84.9907 23.0044C84.7498 23.4215 84.4486 23.8044 84.0959 24.1417C83.9211 24.3102 83.7332 24.4659 83.5337 24.6074C83.4007 24.7025 83.2643 24.788 83.1212 24.8736C82.9782 24.9571 82.8305 25.0332 82.6788 25.1017C82.452 25.2066 82.2174 25.2956 81.9769 25.3678C81.477 25.5147 80.9567 25.5895 80.4334 25.5895H79.4688V20.1341C79.4709 19.2617 79.7431 18.4092 80.2514 17.6834C80.7596 16.9576 81.4813 16.3907 82.3262 16.0536C82.4925 16.117 82.6589 16.1866 82.8152 16.2659C82.895 16.3039 82.9716 16.3451 83.0481 16.3894C83.111 16.4223 83.172 16.4582 83.231 16.4971C83.5454 16.6864 83.8366 16.9085 84.0992 17.1593C84.4519 17.4959 84.7521 17.8789 84.9907 18.2966C85.1506 18.5787 85.2821 18.8747 85.3833 19.1805L85.4531 19.4181C85.4964 19.5768 85.5309 19.7375 85.5562 19.8997C85.5965 20.1481 85.6165 20.3991 85.6161 20.6505Z" fill="url(#paint21_linear_147_416)"/>
<path d="M74.0893 40.7296H57.0742C56.7894 40.7296 56.5586 40.9488 56.5586 41.2191C56.5586 41.4894 56.7894 41.7086 57.0742 41.7086H74.0893C74.374 41.7086 74.6049 41.4894 74.6049 41.2191C74.6049 40.9488 74.374 40.7296 74.0893 40.7296Z" fill="#FF4747"/>
<path d="M74.0893 35.708H57.0742C56.7894 35.708 56.5586 35.9272 56.5586 36.1975C56.5586 36.4678 56.7894 36.6869 57.0742 36.6869H74.0893C74.374 36.6869 74.6049 36.4678 74.6049 36.1975C74.6049 35.9272 74.374 35.708 74.0893 35.708Z" fill="#FF4747"/>
<path d="M74.0903 30.6831H63.1328C62.848 30.6831 62.6172 30.9022 62.6172 31.1726C62.6172 31.4429 62.848 31.662 63.1328 31.662H74.0903C74.375 31.662 74.6059 31.4429 74.6059 31.1726C74.6059 30.9022 74.375 30.6831 74.0903 30.6831Z" fill="#FF4747"/>
<path d="M66.9007 25.6589H56.9544C56.7358 25.6589 56.5586 25.8277 56.5586 26.0359V26.2609C56.5586 26.4691 56.7358 26.6379 56.9544 26.6379H66.9007C67.1193 26.6379 67.2965 26.4691 67.2965 26.2609V26.0359C67.2965 25.8277 67.1193 25.6589 66.9007 25.6589Z" fill="#FF4747"/>
<path d="M60.7333 30.6831H57.0742C56.7894 30.6831 56.5586 30.9022 56.5586 31.1726C56.5586 31.4429 56.7894 31.662 57.0742 31.662H60.7333C61.0181 31.662 61.249 31.4429 61.249 31.1726C61.249 30.9022 61.0181 30.6831 60.7333 30.6831Z" fill="#FF4747"/>
<path d="M31.1094 53.9639H32.7875V79.8909H31.1094V53.9639Z" fill="url(#paint22_linear_147_416)"/>
<path d="M57.0273 62.8433H58.519V79.8912H57.0273V62.8433Z" fill="url(#paint23_linear_147_416)"/>
<g filter="url(#filter3_f_147_416)">
<ellipse cx="37.4601" cy="32.0863" rx="14.3703" ry="4.39906" fill="#FF4C77" fill-opacity="0.3"/>
</g>
<path d="M97.7042 17.2469C97.7042 18.2078 96.879 19.0279 95.8091 19.0279C94.7392 19.0279 93.9141 18.2078 93.9141 17.2469C93.9141 16.286 94.7392 15.4659 95.8091 15.4659C96.879 15.4659 97.7042 16.286 97.7042 17.2469Z" stroke="url(#paint24_linear_147_416)"/>
<path d="M86.7022 88.71C86.7022 89.6709 85.877 90.4909 84.8072 90.4909C83.7373 90.4909 82.9121 89.6709 82.9121 88.71C82.9121 87.749 83.7373 86.929 84.8072 86.929C85.877 86.929 86.7022 87.749 86.7022 88.71Z" stroke="url(#paint25_linear_147_416)"/>
<path d="M19.755 65.8363C21.0586 65.6375 22.1086 66.8682 21.6377 68.0428C21.1702 69.2086 19.5523 69.4451 18.7197 68.4693C17.8871 67.4935 18.4612 66.0337 19.755 65.8363Z" fill="url(#paint26_linear_147_416)"/>
<path d="M108.772 64.4981C108.447 63.2831 109.623 62.1896 110.89 62.5288C112.159 62.8683 112.567 64.3882 111.625 65.264C110.683 66.1397 109.097 65.7142 108.772 64.4981Z" fill="url(#paint27_linear_147_416)"/>
<path d="M62.9714 6.81957C63.0249 6.15064 64.0077 6.15064 64.0612 6.81957C64.0817 7.07649 64.2868 7.2812 64.5438 7.29983C65.1895 7.34662 65.1895 8.29426 64.5438 8.34105C64.2868 8.35968 64.0817 8.56438 64.0612 8.82131C64.0077 9.49024 63.0249 9.49024 62.9714 8.82131C62.9509 8.56438 62.7458 8.35968 62.4887 8.34105C61.8431 8.29426 61.8431 7.34662 62.4887 7.29983C62.7458 7.2812 62.9509 7.07649 62.9714 6.81957Z" fill="url(#paint28_linear_147_416)"/>
<path d="M42.1511 89.881C42.2046 89.212 43.1874 89.212 43.2408 89.881C43.2614 90.1379 43.4665 90.3426 43.7235 90.3612C44.3692 90.408 44.3692 91.3557 43.7235 91.4024C43.4665 91.4211 43.2614 91.6258 43.2408 91.8827C43.1874 92.5516 42.2046 92.5516 42.1511 91.8827C42.1306 91.6258 41.9255 91.4211 41.6684 91.4024C41.0228 91.3557 41.0228 90.408 41.6684 90.3612C41.9255 90.3426 42.1306 90.1379 42.1511 89.881Z" fill="url(#paint29_linear_147_416)"/>
<defs>
<filter id="filter0_f_147_416" x="0.139114" y="51.561" width="130.452" height="59.513" filterUnits="userSpaceOnUse" color-interpolation-filters="sRGB">
<feFlood flood-opacity="0" result="BackgroundImageFix"/>
<feBlend mode="normal" in="SourceGraphic" in2="BackgroundImageFix" result="shape"/>
<feGaussianBlur stdDeviation="10.8865" result="effect1_foregroundBlur_147_416"/>
</filter>
<filter id="filter1_d_147_416" x="20.2421" y="32.2992" width="38.4733" height="41.1146" filterUnits="userSpaceOnUse" color-interpolation-filters="sRGB">
<feFlood flood-opacity="0" result="BackgroundImageFix"/>
<feColorMatrix in="SourceAlpha" type="matrix" values="0 0 0 0 0 0 0 0 0 0 0 0 0 0 0 0 0 0 127 0" result="hardAlpha"/>
<feOffset dx="6.64476" dy="10.4418"/>
<feGaussianBlur stdDeviation="4.74626"/>
<feComposite in2="hardAlpha" operator="out"/>
<feColorMatrix type="matrix" values="0 0 0 0 0.184314 0 0 0 0 0.254902 0 0 0 0 0.443137 0 0 0 0.15 0"/>
<feBlend mode="normal" in2="BackgroundImageFix" result="effect1_dropShadow_147_416"/>
<feBlend mode="normal" in="SourceGraphic" in2="effect1_dropShadow_147_416" result="shape"/>
</filter>
<filter id="filter2_d_147_416" x="82.5233" y="25.196" width="38.4733" height="41.1147" filterUnits="userSpaceOnUse" color-interpolation-filters="sRGB">
<feFlood flood-opacity="0" result="BackgroundImageFix"/>
<feColorMatrix in="SourceAlpha" type="matrix" values="0 0 0 0 0 0 0 0 0 0 0 0 0 0 0 0 0 0 127 0" result="hardAlpha"/>
<feOffset dx="6.64476" dy="10.4418"/>
<feGaussianBlur stdDeviation="4.74626"/>
<feComposite in2="hardAlpha" operator="out"/>
<feColorMatrix type="matrix" values="0 0 0 0 0.184314 0 0 0 0 0.254902 0 0 0 0 0.443137 0 0 0 0.15 0"/>
<feBlend mode="normal" in2="BackgroundImageFix" result="effect1_dropShadow_147_416"/>
<feBlend mode="normal" in="SourceGraphic" in2="effect1_dropShadow_147_416" result="shape"/>
</filter>
<filter id="filter3_f_147_416" x="1.31685" y="5.91426" width="72.2862" height="52.3441" filterUnits="userSpaceOnUse" color-interpolation-filters="sRGB">
<feFlood flood-opacity="0" result="BackgroundImageFix"/>
<feBlend mode="normal" in="SourceGraphic" in2="BackgroundImageFix" result="shape"/>
<feGaussianBlur stdDeviation="10.8865" result="effect1_foregroundBlur_147_416"/>
</filter>
<linearGradient id="paint0_linear_147_416" x1="66.6262" y1="-8.73647" x2="67.4635" y2="141.977" gradientUnits="userSpaceOnUse">
<stop stop-color="#FF8C8C" stop-opacity="0"/>
<stop offset="1" stop-color="#FF8C8C"/>
</linearGradient>
<linearGradient id="paint1_linear_147_416" x1="73.2155" y1="22.5859" x2="73.2155" y2="49.4862" gradientUnits="userSpaceOnUse">
<stop stop-color="#FF4747"/>
<stop offset="1" stop-color="#FF8C8C"/>
</linearGradient>
<linearGradient id="paint2_linear_147_416" x1="111.765" y1="22.5859" x2="111.765" y2="49.483" gradientUnits="userSpaceOnUse">
<stop stop-color="#FF4747"/>
<stop offset="1" stop-color="#FF8C8C"/>
</linearGradient>
<linearGradient id="paint3_linear_147_416" x1="120.238" y1="46.1509" x2="108.335" y2="29.6097" gradientUnits="userSpaceOnUse">
<stop stop-color="#FF8C8C"/>
<stop offset="1" stop-color="#FF4747"/>
</linearGradient>
<linearGradient id="paint4_linear_147_416" x1="75.6188" y1="27.1003" x2="75.6188" y2="49.4861" gradientUnits="userSpaceOnUse">
<stop stop-color="#FF4747"/>
<stop offset="1" stop-color="#FF8C8C"/>
</linearGradient>
<linearGradient id="paint5_linear_147_416" x1="57.9588" y1="89.4803" x2="33.0555" y2="64.826" gradientUnits="userSpaceOnUse">
<stop stop-color="#FF8C8C"/>
<stop offset="1" stop-color="#FF4747"/>
</linearGradient>
<linearGradient id="paint6_linear_147_416" x1="79.4027" y1="82.1994" x2="53.6843" y2="71.0119" gradientUnits="userSpaceOnUse">
<stop stop-color="#FF8C8C"/>
<stop offset="1" stop-color="#FF4747"/>
</linearGradient>
<linearGradient id="paint7_linear_147_416" x1="102.525" y1="82.7322" x2="79.4043" y2="59.7628" gradientUnits="userSpaceOnUse">
<stop stop-color="#FF8C8C"/>
<stop offset="1" stop-color="#FF4747"/>
</linearGradient>
<linearGradient id="paint8_linear_147_416" x1="99.3906" y1="22.5859" x2="99.3906" y2="49.4862" gradientUnits="userSpaceOnUse">
<stop stop-color="#FF4747"/>
<stop offset="1" stop-color="#FF8C8C"/>
</linearGradient>
<linearGradient id="paint9_linear_147_416" x1="46.211" y1="60.1799" x2="43.1637" y2="91.2871" gradientUnits="userSpaceOnUse">
<stop stop-color="#FF4747"/>
<stop offset="1" stop-color="#FF4747"/>
</linearGradient>
<linearGradient id="paint10_linear_147_416" x1="25.1419" y1="55.5628" x2="77.5268" y2="80.9491" gradientUnits="userSpaceOnUse">
<stop stop-color="#FF4747"/>
<stop offset="1" stop-color="#FF4747"/>
</linearGradient>
<linearGradient id="paint11_linear_147_416" x1="120.237" y1="71.1901" x2="86.8643" y2="72.3646" gradientUnits="userSpaceOnUse">
<stop stop-color="#FF4747"/>
<stop offset="1" stop-color="#FF4747"/>
</linearGradient>
<linearGradient id="paint12_linear_147_416" x1="55.2978" y1="49.5432" x2="55.2978" y2="62.8492" gradientUnits="userSpaceOnUse">
<stop stop-color="#FF4747"/>
<stop offset="1" stop-color="#FF8C8C"/>
</linearGradient>
<linearGradient id="paint13_linear_147_416" x1="54.1162" y1="49.5432" x2="54.1162" y2="62.8492" gradientUnits="userSpaceOnUse">
<stop stop-color="#FF4747"/>
<stop offset="1" stop-color="#FF8C8C"/>
</linearGradient>
<linearGradient id="paint14_linear_147_416" x1="54.1179" y1="50.8167" x2="54.1179" y2="61.4678" gradientUnits="userSpaceOnUse">
<stop stop-color="#FF4747"/>
<stop offset="1" stop-color="#FF8C8C"/>
</linearGradient>
<linearGradient id="paint15_linear_147_416" x1="40.4632" y1="41.7255" x2="27.3549" y2="40.3512" gradientUnits="userSpaceOnUse">
<stop stop-color="#FF8C8C"/>
<stop offset="1" stop-color="#FCFEFF"/>
</linearGradient>
<linearGradient id="paint16_linear_147_416" x1="87.486" y1="34.6223" x2="100.594" y2="33.2481" gradientUnits="userSpaceOnUse">
<stop stop-color="#FF8C8C"/>
<stop offset="1" stop-color="#FCFEFF"/>
</linearGradient>
<linearGradient id="paint17_linear_147_416" x1="24.7315" y1="36.1215" x2="24.7315" y2="40.5378" gradientUnits="userSpaceOnUse">
<stop stop-color="#FF4747"/>
<stop offset="1" stop-color="#FF8C8C"/>
</linearGradient>
<linearGradient id="paint18_linear_147_416" x1="103.218" y1="29.0183" x2="103.218" y2="33.4346" gradientUnits="userSpaceOnUse">
<stop stop-color="#FF4747"/>
<stop offset="1" stop-color="#FF8C8C"/>
</linearGradient>
<linearGradient id="paint19_linear_147_416" x1="52.9259" y1="57.8713" x2="57.7732" y2="58.0671" gradientUnits="userSpaceOnUse">
<stop stop-color="#FF4747"/>
<stop offset="0.8125" stop-color="#FF4747"/>
<stop offset="1" stop-color="#FF4747"/>
</linearGradient>
<linearGradient id="paint20_linear_147_416" x1="69.0714" y1="15.7146" x2="69.0714" y2="49.3978" gradientUnits="userSpaceOnUse">
<stop stop-color="#F1FDFF"/>
<stop offset="1" stop-color="#FF8C8C"/>
</linearGradient>
<linearGradient id="paint21_linear_147_416" x1="83.3178" y1="24.3084" x2="76.3127" y2="18.6504" gradientUnits="userSpaceOnUse">
<stop stop-color="#FF8C8C"/>
<stop offset="1" stop-color="#FF4747"/>
</linearGradient>
<linearGradient id="paint22_linear_147_416" x1="19.3623" y1="78.6478" x2="54.6178" y2="74.4891" gradientUnits="userSpaceOnUse">
<stop offset="0.09375" stop-color="#FF8C8C"/>
<stop offset="1" stop-color="#FF8C8C" stop-opacity="0"/>
</linearGradient>
<linearGradient id="paint23_linear_147_416" x1="46.5855" y1="79.0738" x2="77.5718" y2="74.1327" gradientUnits="userSpaceOnUse">
<stop offset="0.09375" stop-color="#FF8C8C"/>
<stop offset="1" stop-color="#FF8C8C" stop-opacity="0"/>
</linearGradient>
<linearGradient id="paint24_linear_147_416" x1="92.8652" y1="15.8213" x2="100.035" y2="22.3454" gradientUnits="userSpaceOnUse">
<stop stop-color="#FF4747"/>
<stop offset="0.9999" stop-color="#FF4747"/>
<stop offset="1" stop-color="#FF4747"/>
</linearGradient>
<linearGradient id="paint25_linear_147_416" x1="81.8632" y1="87.2843" x2="89.0326" y2="93.8084" gradientUnits="userSpaceOnUse">
<stop stop-color="#FF4747"/>
<stop offset="0.9999" stop-color="#FF4747"/>
<stop offset="1" stop-color="#FF4747"/>
</linearGradient>
<linearGradient id="paint26_linear_147_416" x1="22.7027" y1="65.3868" x2="17.6001" y2="69.7406" gradientUnits="userSpaceOnUse">
<stop stop-color="#FF4747"/>
<stop offset="1" stop-color="#FF8C8C"/>
</linearGradient>
<linearGradient id="paint27_linear_147_416" x1="108.04" y1="61.766" x2="112.582" y2="66.6516" gradientUnits="userSpaceOnUse">
<stop stop-color="#FF4747"/>
<stop offset="1" stop-color="#FF8C8C"/>
</linearGradient>
<linearGradient id="paint28_linear_147_416" x1="63.5163" y1="-0.00012207" x2="63.5163" y2="15.641" gradientUnits="userSpaceOnUse">
<stop stop-color="#FF4747"/>
<stop offset="1" stop-color="#FF8C8C"/>
</linearGradient>
<linearGradient id="paint29_linear_147_416" x1="42.696" y1="83.0613" x2="42.696" y2="98.7024" gradientUnits="userSpaceOnUse">
<stop stop-color="#FF4747"/>
<stop offset="1" stop-color="#FF8C8C"/>
</linearGradient>
</defs>
</svg>
