<svg width="24" height="22" viewBox="0 0 24 22" fill="none" xmlns="http://www.w3.org/2000/svg">
<path d="M13.0001 1.03125V1.48242C13.2668 1.53398 13.5251 1.59844 13.7585 1.66289C14.2918 1.80898 14.6085 2.37617 14.4668 2.92617C14.3252 3.47617 13.7752 3.80273 13.2418 3.65664C12.7876 3.53203 12.3626 3.44609 11.9835 3.4418C11.6793 3.4375 11.371 3.51484 11.1751 3.63086C11.0876 3.68672 11.046 3.73398 11.0293 3.75977C11.0168 3.78125 11.0001 3.81133 11.0001 3.88008C11.0001 3.89297 11.0001 3.90156 11.0001 3.90586C11.0085 3.91445 11.0376 3.95742 11.1376 4.01758C11.3793 4.16797 11.7376 4.28398 12.2793 4.45156L12.3168 4.46445C12.7793 4.60625 13.396 4.79961 13.896 5.12187C14.4668 5.49141 14.9835 6.10586 14.996 7.05117C15.0085 8.01797 14.521 8.72266 13.8835 9.13516C13.6043 9.31133 13.3043 9.43594 12.996 9.51328V9.96875C12.996 10.5402 12.5501 11 11.996 11C11.4418 11 10.996 10.5402 10.996 9.96875V9.47891C10.6001 9.38008 10.2376 9.25117 9.92928 9.14375C9.84177 9.11367 9.75844 9.08359 9.67927 9.05781C9.15427 8.87734 8.87093 8.29297 9.04593 7.75156C9.22093 7.21016 9.78761 6.91797 10.3126 7.09844C10.4209 7.13711 10.5209 7.17148 10.6168 7.20586C11.1835 7.40352 11.5918 7.54531 12.0293 7.5625C12.3626 7.57539 12.6585 7.49375 12.8293 7.38633C12.9085 7.33477 12.946 7.2918 12.9626 7.26172C12.9793 7.23594 13.0001 7.18437 12.996 7.08555V7.07695C12.996 7.03398 12.996 6.98672 12.8293 6.8793C12.5918 6.72461 12.2335 6.6043 11.7001 6.43672L11.621 6.41094C11.171 6.27344 10.5793 6.08867 10.1043 5.79219C9.54177 5.44414 9.0001 4.84687 8.99593 3.89727C8.99176 2.91328 9.53344 2.23867 10.1501 1.86055C10.4168 1.69727 10.7043 1.58555 10.9918 1.5082L11.0001 1.03125C11.0001 0.459766 11.446 0 12.0001 0C12.5543 0 13.0001 0.459766 13.0001 1.03125ZM23.6753 14.4504C24.2211 15.2152 24.0628 16.2895 23.3211 16.8523L18.046 20.8613C17.071 21.6004 15.896 22 14.6835 22H8.00009H1.33335C0.59584 22 0 21.3855 0 20.625V17.875C0 17.1145 0.59584 16.5 1.33335 16.5H2.8667L4.73755 14.9531C5.6834 14.1711 6.85841 13.75 8.07092 13.75H11.3335H12.0001H14.6668C15.4043 13.75 16.0002 14.3645 16.0002 15.125C16.0002 15.8855 15.4043 16.5 14.6668 16.5H12.0001H11.3335C10.9668 16.5 10.6668 16.8094 10.6668 17.1875C10.6668 17.5656 10.9668 17.875 11.3335 17.875H16.3585L21.3461 14.0852C22.0877 13.5223 23.1294 13.6855 23.6753 14.4504ZM8.06676 16.5H8.02925C8.04175 16.5 8.05426 16.5 8.06676 16.5Z" fill="white"/>
</svg>
