<svg width="81" height="121" viewBox="0 0 81 121" fill="none" xmlns="http://www.w3.org/2000/svg">
<mask id="mask0_172_2430" style="mask-type:alpha" maskUnits="userSpaceOnUse" x="0" y="0" width="81" height="121">
<rect width="81" height="121" transform="matrix(-1 0 0 1 81 0)" fill="url(#paint0_linear_172_2430)"/>
</mask>
<g mask="url(#mask0_172_2430)">
<rect width="15" height="90" rx="7.5" transform="matrix(-1 0 0 1 79 31)" fill="white"/>
<rect width="15" height="75" rx="7.5" transform="matrix(-1 0 0 1 48 46)" fill="white"/>
<rect width="15" height="59" rx="7.5" transform="matrix(-1 0 0 1 17 62)" fill="white"/>
<path d="M2.26847 48.6905C1.54524 49.0945 1.28646 50.0083 1.69047 50.7315C2.09448 51.4548 3.0083 51.7135 3.73153 51.3095L2.26847 48.6905ZM76.9432 9.90871C77.169 9.11162 76.7058 8.28248 75.9087 8.05675L62.9195 4.37839C62.1224 4.15267 61.2933 4.61585 61.0675 5.41293C60.8418 6.21001 61.305 7.03916 62.1021 7.26488L73.648 10.5345L70.3784 22.0805C70.1527 22.8776 70.6159 23.7067 71.4129 23.9325C72.21 24.1582 73.0392 23.695 73.2649 22.8979L76.9432 9.90871ZM3.73153 51.3095L76.2315 10.8095L74.7685 8.19047L2.26847 48.6905L3.73153 51.3095Z" fill="white"/>
</g>
<defs>
<linearGradient id="paint0_linear_172_2430" x1="40.5" y1="0" x2="40.5" y2="121" gradientUnits="userSpaceOnUse">
<stop stop-color="white"/>
<stop offset="1" stop-color="#999999" stop-opacity="0.2"/>
</linearGradient>
</defs>
</svg>
