<svg width="57" height="57" viewBox="0 0 57 57" fill="none" xmlns="http://www.w3.org/2000/svg">
<rect width="57" height="57" rx="28.5" fill="#FF4747" fill-opacity="0.1"/>
<path d="M26.7161 25.8301C26.3651 26.0648 26.0637 26.3663 25.8292 26.7174C25.5947 27.0686 25.4317 27.4624 25.3494 27.8766C25.1833 28.7129 25.3562 29.5811 25.8301 30.29C26.3041 30.9988 27.0402 31.4904 27.8766 31.6566C28.7129 31.8227 29.5811 31.6498 30.29 31.1759C30.9988 30.702 31.4904 29.9658 31.6566 29.1295C31.8227 28.2931 31.6498 27.425 31.1759 26.7161C30.702 26.0072 29.9658 25.5156 29.1295 25.3494C28.2931 25.1833 27.425 25.3562 26.7161 25.8301ZM35.2922 21.7078C34.9788 21.3944 34.5991 21.1473 34.1833 20.9846C33.0924 20.5567 30.7118 20.5748 29.175 20.5929C28.9279 20.5929 28.6989 20.5989 28.5 20.5989C28.3011 20.5989 28.0661 20.5989 27.8129 20.5929C26.2761 20.5748 23.9076 20.5507 22.8167 20.9846C22.4009 21.1473 22.0272 21.3944 21.7078 21.7078C21.3884 22.0212 21.1473 22.4009 20.9846 22.8167C20.5567 23.9076 20.5808 26.2942 20.5929 27.831C20.5929 28.0781 20.5989 28.3071 20.5989 28.5C20.5989 28.6929 20.5989 28.9219 20.5929 29.169C20.5808 30.7058 20.5567 33.0924 20.9846 34.1833C21.1473 34.5991 21.3944 34.9728 21.7078 35.2922C22.0212 35.6116 22.4009 35.8527 22.8167 36.0154C23.9076 36.4433 26.2882 36.4252 27.825 36.4071C28.0721 36.4071 28.3011 36.4011 28.5 36.4011C28.6989 36.4011 28.9339 36.4011 29.1871 36.4071C30.7239 36.4252 33.0924 36.4493 34.1833 36.0154C34.5991 35.8527 34.9728 35.6056 35.2922 35.2922C35.6116 34.9788 35.8527 34.5991 36.0154 34.1833C36.4493 33.0984 36.4252 30.7239 36.4071 29.181C36.4071 28.9279 36.4011 28.6929 36.4011 28.494C36.4011 28.2951 36.4011 28.0661 36.4071 27.8069C36.4252 26.2701 36.4493 23.8955 36.0154 22.8047C35.8527 22.3888 35.6056 22.0152 35.2922 21.6958V21.7078ZM31.2482 24.3897C32.3383 25.1186 33.0942 26.2507 33.3497 27.5369C33.6051 28.8231 33.3391 30.1581 32.6103 31.2482C32.2494 31.788 31.7857 32.2514 31.2457 32.6119C30.7057 32.9725 30.1 33.2232 29.4631 33.3497C28.1769 33.6051 26.8419 33.3391 25.7518 32.6103C24.6617 31.8822 23.9054 30.7509 23.6494 29.4652C23.3934 28.1796 23.6586 26.8449 24.3867 25.7548C25.1148 24.6647 26.2461 23.9085 27.5317 23.6525C28.8174 23.3965 30.1521 23.6617 31.2422 24.3897H31.2482ZM33.008 24.3114C32.8212 24.1848 32.6705 24.004 32.5801 23.7931C32.4897 23.5821 32.4717 23.3531 32.5138 23.1241C32.556 22.8951 32.6705 22.6962 32.8272 22.5335C32.9839 22.3708 33.1949 22.2623 33.4179 22.2201C33.6408 22.1779 33.8759 22.196 34.0868 22.2864C34.2978 22.3768 34.4786 22.5214 34.6051 22.7083C34.7317 22.8951 34.798 23.1181 34.798 23.3471C34.798 23.4978 34.7679 23.6484 34.7136 23.7871C34.6594 23.9257 34.569 24.0522 34.4665 24.1607C34.3641 24.2692 34.2315 24.3536 34.0929 24.4138C33.9542 24.4741 33.8036 24.5042 33.6529 24.5042C33.4239 24.5042 33.2009 24.4379 33.0141 24.3114H33.008ZM42 18.8571C42 16.7297 40.2703 15 38.1429 15H18.8571C16.7297 15 15 16.7297 15 18.8571V38.1429C15 40.2703 16.7297 42 18.8571 42H38.1429C40.2703 42 42 40.2703 42 38.1429V18.8571ZM36.5156 36.5156C35.3886 37.6426 34.0205 37.9982 32.4777 38.0766C30.8866 38.167 26.1134 38.167 24.5223 38.0766C22.9795 37.9982 21.6114 37.6426 20.4844 36.5156C19.3574 35.3886 19.0018 34.0205 18.9295 32.4777C18.8391 30.8866 18.8391 26.1134 18.9295 24.5223C19.0078 22.9795 19.3574 21.6114 20.4844 20.4844C21.6114 19.3574 22.9855 19.0018 24.5223 18.9295C26.1134 18.8391 30.8866 18.8391 32.4777 18.9295C34.0205 19.0078 35.3886 19.3574 36.5156 20.4844C37.6426 21.6114 37.9982 22.9795 38.0705 24.5223C38.1609 26.1074 38.1609 30.8746 38.0705 32.4717C37.9922 34.0145 37.6426 35.3826 36.5156 36.5096V36.5156Z" fill="#FF4747"/>
</svg>
