<svg width="24" height="25" viewBox="0 0 24 25" fill="none" xmlns="http://www.w3.org/2000/svg">
<rect width="24" height="24" transform="translate(0 0.519287)" fill="white"/>
<path fill-rule="evenodd" clip-rule="evenodd" d="M23.04 12.7807C23.04 11.9653 22.9668 11.1812 22.8309 10.4285H12V14.8769H18.1891C17.9225 16.3144 17.1123 17.5323 15.8943 18.3478V21.2332H19.6109C21.7855 19.2312 23.04 16.283 23.04 12.7807Z" fill="#4285F4"/>
<path fill-rule="evenodd" clip-rule="evenodd" d="M12 24.0191C15.105 24.0191 17.7081 22.9893 19.6109 21.233L15.8943 18.3475C14.8645 19.0375 13.5472 19.4452 12 19.4452C9.00474 19.4452 6.46951 17.4223 5.56519 14.7041H1.72314V17.6836C3.61542 21.4421 7.50451 24.0191 12 24.0191Z" fill="#34A853"/>
<path fill-rule="evenodd" clip-rule="evenodd" d="M5.56523 14.7043C5.33523 14.0143 5.20455 13.2772 5.20455 12.5193C5.20455 11.7613 5.33523 11.0243 5.56523 10.3343V7.35474H1.72318C0.944318 8.90724 0.5 10.6636 0.5 12.5193C0.5 14.375 0.944318 16.1313 1.72318 17.6838L5.56523 14.7043Z" fill="#FBBC05"/>
<path fill-rule="evenodd" clip-rule="evenodd" d="M12 5.59315C13.6884 5.59315 15.2043 6.17338 16.3961 7.31292L19.6945 4.01451C17.7029 2.15883 15.0997 1.01929 12 1.01929C7.50451 1.01929 3.61542 3.59633 1.72314 7.35474L5.56519 10.3343C6.46951 7.6161 9.00474 5.59315 12 5.59315Z" fill="#EA4335"/>
</svg>
