<svg width="25" height="25" viewBox="0 0 25 25" fill="none" xmlns="http://www.w3.org/2000/svg">
<g clip-path="url(#clip0_471_362)">
<rect width="24" height="24" transform="translate(0.5 0.173096)" fill="#1877F2"/>
<path d="M24 12.243C24 5.8917 18.8513 0.742975 12.5 0.742975C6.14872 0.742975 1 5.8917 1 12.243C1 17.983 5.20538 22.7405 10.7031 23.6033V15.5672H7.7832V12.243H10.7031V9.70938C10.7031 6.82719 12.42 5.23516 15.0468 5.23516C16.305 5.23516 17.6211 5.45977 17.6211 5.45977V8.28985H16.171C14.7424 8.28985 14.2969 9.17632 14.2969 10.0858V12.243H17.4863L16.9765 15.5672H14.2969V23.6033C19.7946 22.7405 24 17.983 24 12.243Z" fill="white"/>
</g>
<defs>
<clipPath id="clip0_471_362">
<rect width="24" height="24" fill="white" transform="translate(0.5 0.173096)"/>
</clipPath>
</defs>
</svg>
