<svg width="13" height="16" viewBox="0 0 13 16" fill="none" xmlns="http://www.w3.org/2000/svg">
<rect x="4.0188" y="10.9077" width="4.59264" height="4.59264" rx="2.29632" fill="white"/>
<rect x="4.5188" y="11.4077" width="3.59264" height="3.59264" rx="1.79632" stroke="white" stroke-opacity="0.2"/>
<path d="M6.16672 1.14816C6.16672 1.06633 6.23305 1 6.31488 1C6.39671 1 6.46304 1.06633 6.46304 1.14816C6.46304 1.69676 6.84156 2.14868 7.34211 2.27549C9.14712 2.73277 10.4816 4.36924 10.4816 6.31488V9.678C10.4816 10.4561 10.8966 11.158 11.1502 11.587C11.1652 11.6124 11.1796 11.6368 11.1933 11.6602C11.5211 12.2185 11.6298 12.4577 11.6298 12.6298C11.6298 12.7116 11.5634 12.7779 11.4816 12.7779H1.14816C1.06633 12.7779 1 12.7116 1 12.6298C1 12.4577 1.10864 12.2185 1.43644 11.6602C1.45018 11.6368 1.4646 11.6124 1.47958 11.587C1.73319 11.158 2.14816 10.4561 2.14816 9.678V6.31488C2.14816 4.36924 3.48263 2.73277 5.28765 2.27549C5.7882 2.14868 6.16672 1.69676 6.16672 1.14816Z" stroke="white" stroke-width="2" stroke-linecap="round" stroke-linejoin="round"/>
</svg>
