<svg width="25" height="25" viewBox="0 0 25 25" fill="none" xmlns="http://www.w3.org/2000/svg">
<rect width="25" height="25" rx="6" fill="white" fill-opacity="0.8"/>
<path d="M13.3161 5.29706C13.1655 4.98826 12.8474 4.79175 12.498 4.79175C12.1486 4.79175 11.8333 4.98826 11.6799 5.29706L11.2468 6.17767C10.3745 7.95133 8.68472 9.18163 6.72889 9.46699L5.77425 9.60627C5.43338 9.6568 5.14931 9.89262 5.04421 10.2155C4.93911 10.5383 5.02433 10.8948 5.26862 11.1334L5.9793 11.8284C7.38785 13.2057 8.03052 15.1868 7.69876 17.1287L7.52974 18.118C7.47293 18.4549 7.61496 18.7974 7.89618 18.9967C8.1774 19.196 8.54952 19.2213 8.8563 19.0613L9.7008 18.6157C11.453 17.6911 13.5486 17.6911 15.3008 18.6157L16.1453 19.0613C16.4521 19.2213 16.8242 19.1988 17.1054 18.9967C17.3866 18.7946 17.5287 18.4549 17.4719 18.118L17.3025 17.1309C16.9692 15.1878 17.6117 13.2049 19.0213 11.8266L19.7301 11.1334C19.9744 10.8948 20.0625 10.5383 19.9545 10.2155C19.8466 9.89262 19.5654 9.6568 19.2245 9.60627L18.2675 9.46673C16.3114 9.18154 14.6213 7.95118 13.749 6.17733L13.3161 5.29706Z" fill="#FF4747"/>
</svg>
