<svg width="57" height="57" viewBox="0 0 57 57" fill="none" xmlns="http://www.w3.org/2000/svg">
<rect width="57" height="57" rx="28.5" fill="#FF4747" fill-opacity="0.1"/>
<path d="M45.1192 28.0596C45.1192 19.1892 37.93 12 29.0596 12C20.1892 12 13 19.1892 13 28.0596C13 35.5875 18.188 41.911 25.1827 43.6487V32.9653H21.8704V28.0596H25.1827V25.9455C25.1827 20.4815 27.6544 17.9471 33.0243 17.9471C34.0406 17.9471 35.7971 18.1478 36.5185 18.3486V22.79C36.1421 22.7524 35.4834 22.7273 34.6616 22.7273C32.0269 22.7273 31.0106 23.7248 31.0106 26.3156V28.0596H36.255L35.3517 32.9653H31.0043V44C38.9588 43.0402 45.1192 36.2713 45.1192 28.0596Z" fill="#FF4747"/>
</svg>
