<svg width="57" height="57" viewBox="0 0 57 57" fill="none" xmlns="http://www.w3.org/2000/svg">
<rect width="57" height="57" rx="28.5" fill="#FF4747" fill-opacity="0.1"/>
<path d="M40.5024 26.48C38.0937 26.4852 35.7443 25.7333 33.7861 24.3306V34.1097C33.7856 35.9208 33.232 37.6886 32.1996 39.1766C31.1671 40.6646 29.7049 41.802 28.0085 42.4364C26.3122 43.0709 24.4625 43.1723 22.707 42.7271C20.9514 42.2819 19.3736 41.3113 18.1846 39.9451C16.9957 38.5788 16.2522 36.8822 16.0536 35.0819C15.8551 33.2817 16.2109 31.4638 17.0735 29.8713C17.9361 28.2788 19.2644 26.9876 20.8807 26.1705C22.497 25.3533 24.3243 25.0492 26.1182 25.2987V30.2156C25.2979 29.9573 24.4171 29.9649 23.6014 30.2371C22.7857 30.5094 22.0769 31.0324 21.5761 31.7315C21.0754 32.4306 20.8083 33.27 20.813 34.1299C20.8178 34.9898 21.0941 35.8263 21.6026 36.5198C22.111 37.2133 22.8256 37.7284 23.6442 37.9916C24.4629 38.2548 25.3438 38.2527 26.1611 37.9854C26.9785 37.7181 27.6905 37.1995 28.1955 36.5034C28.7005 35.8074 28.9727 34.9696 28.9732 34.1097V15H33.7861C33.7834 15.4071 33.8182 15.8135 33.89 16.2142C34.0574 17.1073 34.4052 17.9569 34.912 18.7111C35.4189 19.4653 36.0742 20.1082 36.838 20.6006C37.9252 21.3186 39.1995 21.7009 40.5024 21.6999V26.48Z" fill="#FF4747"/>
</svg>
