<svg width="30" height="30" viewBox="0 0 30 30" fill="none" xmlns="http://www.w3.org/2000/svg">
<rect width="30" height="30" rx="15" fill="white"/>
<path d="M23.3098 8.6719C23.5536 8.59107 23.8252 8.71135 23.9329 8.94448C24.3134 9.77089 24.6369 10.6237 24.9007 11.5094C25.2827 11.3071 25.7106 11.0916 26.134 10.9481C26.381 10.8661 26.6558 10.9852 26.7639 11.2236C27.2359 12.271 27.4897 13.4947 27.568 14.5861C27.6452 15.6616 27.5607 16.6901 27.2868 17.3224C26.0977 20.0663 22.8447 21.4101 20.0466 20.1975C17.2169 18.9713 16.0056 15.6903 17.1946 12.9464C17.5525 12.1207 18.3905 11.2859 19.4447 10.5576C20.5122 9.81711 21.8574 9.14592 23.3098 8.6719ZM20.9795 18.1497C21.5495 18.3967 22.1194 18.4649 22.7252 18.3698C23.9476 18.1486 24.7502 16.9945 24.6107 15.754C24.5932 15.5165 24.3397 15.3914 24.1224 15.4913L23.2817 15.8754C23.0621 15.9744 22.7959 15.8539 22.7299 15.6235C22.5538 15.0108 22.2387 13.9164 22.0587 13.2944C21.9913 13.0608 21.7218 12.9415 21.5031 13.0511C20.3456 13.635 19.7128 14.0453 19.4324 14.6926C18.7963 16.1666 19.5579 17.5337 20.9795 18.1497Z" fill="#FF4747" fill-opacity="0.4"/>
<path d="M2.77668 12.2432C2.78367 11.9865 2.98926 11.772 3.24513 11.7501C4.1517 11.6738 5.06372 11.6599 5.9863 11.7135C5.92618 11.2854 5.86917 10.8097 5.87845 10.3627C5.88541 10.1026 6.09098 9.88471 6.35195 9.86424C7.4975 9.77706 8.73444 9.95501 9.78728 10.253C10.8248 10.5466 11.7632 10.9762 12.2643 11.449C14.4395 13.5013 14.5955 17.0174 12.5027 19.2355C10.3864 21.4787 6.88901 21.5006 4.71385 19.4484C4.05925 18.8308 3.55969 17.7586 3.23378 16.5194C2.901 15.2636 2.72789 13.7703 2.77668 12.2432ZM10.8949 17.6612C11.3212 17.2093 11.5793 16.6967 11.6962 16.0947C11.9044 14.87 11.0925 13.7225 9.87861 13.4313C9.64936 13.3669 9.44536 13.5626 9.46539 13.8009L9.54024 14.7222C9.55858 14.9623 9.35466 15.1716 9.11552 15.1553C8.47952 15.1122 7.34319 15.036 6.69701 14.9934C6.45449 14.9773 6.25058 15.19 6.27912 15.4329C6.43407 16.7201 6.60447 17.4548 7.11758 17.9389C8.28697 19.0388 9.83167 18.7881 10.8949 17.6612Z" fill="#FF4747" fill-opacity="0.4"/>
<path d="M12.9781 7.15894C13.2219 6.94508 13.6 6.94801 13.8438 7.16186C14.7063 7.92062 15.5156 8.73796 16.2719 9.62268C16.6156 9.20083 17.0063 8.74089 17.4281 8.36591C17.675 8.14912 18.0563 8.14912 18.3031 8.36884C19.3844 9.33559 20.3 10.6129 20.9438 11.8257C21.5781 13.021 22 14.2426 22 15.1039C22 18.842 18.8813 22 15 22C11.075 22 8 18.839 8 15.1009C8 13.976 8.55625 12.602 9.41875 11.2427C10.2906 9.8629 11.5219 8.4245 12.9781 7.15894ZM15.0531 19.1876C15.8438 19.1876 16.5437 18.9826 17.2031 18.5724C18.5188 17.7111 18.8719 15.9886 18.0813 14.6351C17.9406 14.3715 17.5813 14.3539 17.3781 14.5765L16.5906 15.4349C16.3844 15.6575 16.0125 15.6517 15.8187 15.4202C15.3031 14.805 14.3812 13.7065 13.8562 13.0825C13.6594 12.8481 13.2844 12.8452 13.0844 13.0795C12.0281 14.3246 11.4969 15.1097 11.4969 15.9915C11.5 17.9982 13.0813 19.1876 15.0531 19.1876Z" fill="#FF4747"/>
</svg>
