<svg width="30" height="30" viewBox="0 0 30 30" fill="none" xmlns="http://www.w3.org/2000/svg">
<rect width="30" height="30" rx="15" fill="white"/>
<path d="M18.3605 9.14194C18.5815 9.01107 18.8725 9.07075 19.0274 9.2756C19.5751 10.0021 20.0728 10.7665 20.5191 11.5757C20.8493 11.2967 21.2215 10.995 21.6046 10.7647C21.8285 10.632 22.1224 10.6898 22.2787 10.8997C22.9629 11.8227 23.4714 12.9642 23.7803 14.0139C24.0847 15.0484 24.2211 16.0713 24.0881 16.7473C23.5105 19.6815 20.6182 21.6871 17.6261 21.0981C14.6002 20.5024 12.718 17.5546 13.2956 14.6204C13.4695 13.7374 14.1106 12.7434 14.9855 11.8073C15.8709 10.8565 17.0423 9.91433 18.3605 9.14194ZM18.1016 18.8986C18.7111 19.0186 19.2824 18.9638 19.8541 18.742C21.0014 18.2656 21.5398 16.9671 21.1394 15.7847C21.0718 15.5564 20.7974 15.4881 20.6064 15.632L19.8667 16.1863C19.6733 16.3297 19.3875 16.2687 19.2739 16.0576C18.9715 15.4965 18.4305 14.4943 18.1222 13.9248C18.0067 13.711 17.718 13.6518 17.5276 13.8054C16.521 14.6224 15.9901 15.158 15.8538 15.8502C15.5462 17.4258 16.5814 18.5994 18.1016 18.8986Z" fill="#FF4747" fill-opacity="0.4"/>
<path d="M9.97813 8.15894C10.2219 7.94508 10.6 7.94801 10.8438 8.16186C11.7063 8.92062 12.5156 9.73796 13.2719 10.6227C13.6156 10.2008 14.0063 9.74089 14.4281 9.36591C14.675 9.14912 15.0563 9.14912 15.3031 9.36884C16.3844 10.3356 17.3 11.6129 17.9438 12.8257C18.5781 14.021 19 15.2426 19 16.1039C19 19.842 15.8813 23 12 23C8.075 23 5 19.839 5 16.1009C5 14.976 5.55625 13.602 6.41875 12.2427C7.29063 10.8629 8.52188 9.4245 9.97813 8.15894ZM12.0531 20.1876C12.8438 20.1876 13.5437 19.9826 14.2031 19.5724C15.5188 18.7111 15.8719 16.9886 15.0813 15.6351C14.9406 15.3715 14.5813 15.3539 14.3781 15.5765L13.5906 16.4349C13.3844 16.6575 13.0125 16.6517 12.8187 16.4202C12.3031 15.805 11.3812 14.7065 10.8562 14.0825C10.6594 13.8481 10.2844 13.8452 10.0844 14.0795C9.02812 15.3246 8.49688 16.1097 8.49688 16.9915C8.5 18.9982 10.0813 20.1876 12.0531 20.1876Z" fill="#FF4747"/>
</svg>
