<svg width="30" height="30" viewBox="0 0 30 30" fill="none" xmlns="http://www.w3.org/2000/svg">
<rect width="30" height="30" rx="15" fill="white"/>
<path d="M12.9781 8.15894C13.2219 7.94508 13.6 7.94801 13.8438 8.16186C14.7063 8.92062 15.5156 9.73796 16.2719 10.6227C16.6156 10.2008 17.0063 9.74089 17.4281 9.36591C17.675 9.14912 18.0563 9.14912 18.3031 9.36884C19.3844 10.3356 20.3 11.6129 20.9438 12.8257C21.5781 14.021 22 15.2426 22 16.1039C22 19.842 18.8813 23 15 23C11.075 23 8 19.839 8 16.1009C8 14.976 8.55625 13.602 9.41875 12.2427C10.2906 10.8629 11.5219 9.4245 12.9781 8.15894ZM15.0531 20.1876C15.8438 20.1876 16.5437 19.9826 17.2031 19.5724C18.5188 18.7111 18.8719 16.9886 18.0813 15.6351C17.9406 15.3715 17.5813 15.3539 17.3781 15.5765L16.5906 16.4349C16.3844 16.6575 16.0125 16.6517 15.8187 16.4202C15.3031 15.805 14.3812 14.7065 13.8562 14.0825C13.6594 13.8481 13.2844 13.8452 13.0844 14.0795C12.0281 15.3246 11.4969 16.1097 11.4969 16.9915C11.5 18.9982 13.0813 20.1876 15.0531 20.1876Z" fill="#FF4747"/>
</svg>
