<svg width="33" height="31" viewBox="0 0 33 31" fill="none" xmlns="http://www.w3.org/2000/svg">
<path d="M31.2973 28.2622C31.2981 28.4829 31.2553 28.7016 31.1713 28.9057C31.0874 29.1099 30.964 29.2955 30.8082 29.4518C30.6525 29.6082 30.4674 29.7323 30.2635 29.817C30.0597 29.9017 29.8412 29.9453 29.6205 29.9454L2.72389 30C2.50323 30.0006 2.28462 29.9576 2.08056 29.8736C1.8765 29.7896 1.69101 29.6662 1.53468 29.5105C1.37835 29.3548 1.25426 29.1697 1.16951 28.966C1.08475 28.7623 1.04099 28.5438 1.04073 28.3231L1.00293 9.41146L15.8906 0.0648843C15.9572 0.0228572 16.0343 0.00037666 16.1131 4.69174e-06C16.1918 -0.000367277 16.2691 0.0213854 16.3361 0.0627815L30.9107 9.134L31.2595 9.35045V9.65304L31.2973 28.2622Z" fill="#FF4747"/>
<path d="M29.1027 1.69263H2.99943C2.93718 1.69263 2.88672 1.74309 2.88672 1.80534V29.7373C2.88672 29.7995 2.93718 29.85 2.99943 29.85H29.1027C29.1649 29.85 29.2154 29.7995 29.2154 29.7373V1.80534C29.2154 1.74309 29.1649 1.69263 29.1027 1.69263Z" fill="#FFC8C8"/>
<path d="M25.9187 5H7.08134C7.03642 5 7 5.00179 7 5.004V5.996C7 5.99821 7.03642 6 7.08134 6H25.9187C25.9636 6 26 5.99821 26 5.996V5.004C26 5.00179 25.9636 5 25.9187 5Z" fill="white"/>
<path d="M25.9187 8H7.08134C7.03642 8 7 8.00179 7 8.004V8.996C7 8.99821 7.03642 9 7.08134 9H25.9187C25.9636 9 26 8.99821 26 8.996V8.004C26 8.00179 25.9636 8 25.9187 8Z" fill="white"/>
<path d="M16.0011 20.0579L16.001 20.0579C15.94 20.0113 15.8908 19.9509 15.8576 19.8816C15.8244 19.8123 15.8081 19.7362 15.8101 19.6594L16.0011 20.0579ZM16.0011 20.0579L29.3509 30.2367C29.351 30.2367 29.3511 30.2368 29.3511 30.2368C29.4386 30.3035 29.5458 30.3388 29.6557 30.3372L29.6579 30.3371C30.2031 30.326 30.7221 30.1013 31.1033 29.7114C31.4845 29.3216 31.6974 28.7976 31.6963 28.2524L31.6588 9.50217L31.6588 9.50206C31.6586 9.41379 31.6343 9.32729 31.5886 9.25185C31.543 9.17639 31.4776 9.11478 31.3996 9.07366C31.3215 9.03256 31.2337 9.01348 31.1456 9.01851C31.0576 9.02355 30.9725 9.05249 30.8997 9.10222L30.8995 9.10236L16.0214 19.2711L16.0213 19.2713M16.0011 20.0579L16.0213 19.2713M16.0213 19.2713C15.958 19.3146 15.9057 19.3724 15.869 19.4399L16.0213 19.2713Z" fill="#FFC8C8" stroke="#FF4747" stroke-width="0.8"/>
<mask id="path-6-outside-1_378_3371" maskUnits="userSpaceOnUse" x="0" y="8.47778" width="17" height="23" fill="black">
<rect fill="white" y="8.47778" width="17" height="23"/>
<path d="M2.74655 29.9722L16.0558 19.7402C16.0665 19.732 16.0751 19.7213 16.0809 19.7091C16.0867 19.6968 16.0895 19.6834 16.0891 19.6699C16.0887 19.6564 16.0851 19.6432 16.0786 19.6313C16.0721 19.6195 16.0629 19.6093 16.0517 19.6017L1.13334 9.49248C1.12048 9.48377 1.1055 9.47873 1.08999 9.4779C1.07449 9.47708 1.05905 9.48049 1.04534 9.48777C1.03163 9.49506 1.02017 9.50594 1.01218 9.51926C1.00419 9.53257 0.999979 9.54781 1 9.56333L1.03757 28.3135C1.03845 28.754 1.21214 29.1764 1.52128 29.4901C1.83042 29.8038 2.25032 29.9837 2.69068 29.991C2.71088 29.9912 2.73055 29.9846 2.74655 29.9722Z"/>
</mask>
<path d="M2.74655 29.9722L16.0558 19.7402C16.0665 19.732 16.0751 19.7213 16.0809 19.7091C16.0867 19.6968 16.0895 19.6834 16.0891 19.6699C16.0887 19.6564 16.0851 19.6432 16.0786 19.6313C16.0721 19.6195 16.0629 19.6093 16.0517 19.6017L1.13334 9.49248C1.12048 9.48377 1.1055 9.47873 1.08999 9.4779C1.07449 9.47708 1.05905 9.48049 1.04534 9.48777C1.03163 9.49506 1.02017 9.50594 1.01218 9.51926C1.00419 9.53257 0.999979 9.54781 1 9.56333L1.03757 28.3135C1.03845 28.754 1.21214 29.1764 1.52128 29.4901C1.83042 29.8038 2.25032 29.9837 2.69068 29.991C2.71088 29.9912 2.73055 29.9846 2.74655 29.9722Z" fill="#FFC8C8"/>
<path d="M2.74655 29.9722L2.25896 29.338L2.25818 29.3386L2.74655 29.9722ZM16.0558 19.7402L16.5434 20.3744L16.5434 20.3744L16.0558 19.7402ZM16.0517 19.6017L16.5006 18.9396L16.5005 18.9395L16.0517 19.6017ZM1.13334 9.49248L1.58212 8.83021L1.58189 8.83005L1.13334 9.49248ZM1 9.56333L0.200001 9.56441L0.200002 9.56494L1 9.56333ZM1.03757 28.3135L0.237572 28.3151V28.3151L1.03757 28.3135ZM2.69068 29.991L2.67738 30.7909L2.68339 30.791L2.69068 29.991ZM3.23414 30.6065L16.5434 20.3744L15.5682 19.106L2.25896 29.338L3.23414 30.6065ZM16.5434 20.3744C16.6546 20.289 16.7438 20.1784 16.8038 20.0518L15.3581 19.3663C15.4065 19.2642 15.4785 19.175 15.5682 19.106L16.5434 20.3744ZM16.8038 20.0518C16.8638 19.9252 16.893 19.7861 16.8888 19.646L15.2895 19.6938C15.2861 19.5807 15.3096 19.4685 15.3581 19.3663L16.8038 20.0518ZM16.8888 19.646C16.8846 19.5059 16.8472 19.3688 16.7797 19.2461L15.3775 20.0166C15.3231 19.9175 15.2929 19.8069 15.2895 19.6938L16.8888 19.646ZM16.7797 19.2461C16.7123 19.1233 16.6167 19.0183 16.5006 18.9396L15.6028 20.2639C15.5091 20.2004 15.4319 20.1156 15.3775 20.0166L16.7797 19.2461ZM16.5005 18.9395L1.58212 8.83021L0.68456 10.1547L15.6029 20.264L16.5005 18.9395ZM1.58189 8.83005C1.44864 8.73983 1.29334 8.68763 1.13267 8.67904L1.04731 10.2768C0.917656 10.2698 0.792323 10.2277 0.684789 10.1549L1.58189 8.83005ZM1.13267 8.67904C0.97199 8.67046 0.812012 8.70583 0.669928 8.78133L1.42076 10.1942C1.3061 10.2552 1.17699 10.2837 1.04731 10.2768L1.13267 8.67904ZM0.669928 8.78133C0.527861 8.85683 0.409023 8.96962 0.326214 9.10761L1.69814 9.9309C1.63131 10.0423 1.53541 10.1333 1.42076 10.1942L0.669928 8.78133ZM0.326214 9.10761C0.24343 9.24556 0.199784 9.40348 0.200001 9.56441L1.8 9.56226C1.80017 9.69213 1.76495 9.81958 1.69814 9.9309L0.326214 9.10761ZM0.200002 9.56494L0.237572 28.3151L1.83757 28.3119L1.8 9.56173L0.200002 9.56494ZM0.237572 28.3151C0.238877 28.9652 0.495224 29.5887 0.951479 30.0517L2.09109 28.9286C1.92907 28.7642 1.83803 28.5428 1.83757 28.3119L0.237572 28.3151ZM0.951479 30.0517C1.40773 30.5146 2.02745 30.7801 2.67738 30.7909L2.70398 29.1911C2.47319 29.1873 2.25312 29.093 2.09109 28.9286L0.951479 30.0517ZM2.68339 30.791C2.88278 30.7928 3.077 30.7276 3.23493 30.6059L2.25818 29.3386C2.38411 29.2416 2.53898 29.1896 2.69797 29.191L2.68339 30.791Z" fill="#FF4747" mask="url(#path-6-outside-1_378_3371)"/>
<path d="M29.6186 29.9376L2.72212 29.9914C2.31522 29.991 1.92219 29.8435 1.61558 29.576C1.30898 29.3085 1.1095 28.9391 1.05398 28.536C1.04483 28.4673 1.05278 28.3974 1.07712 28.3325C1.10146 28.2675 1.14144 28.2096 1.19351 28.1639L15.863 15.1856C15.9396 15.1178 16.0383 15.0803 16.1406 15.0801C16.2429 15.0799 16.3418 15.117 16.4187 15.1845L31.1398 28.104C31.192 28.1495 31.2323 28.2073 31.2569 28.2721C31.2815 28.3369 31.2897 28.4068 31.2808 28.4756C31.2269 28.8789 31.0289 29.249 30.7234 29.5177C30.4179 29.7865 30.0255 29.9356 29.6186 29.9376Z" fill="#FF4747"/>
</svg>
