<svg width="31" height="30" viewBox="0 0 31 30" fill="none" xmlns="http://www.w3.org/2000/svg">
<path fill-rule="evenodd" clip-rule="evenodd" d="M7.79008 5.90283C3.6312 5.90283 0.259766 9.27427 0.259766 13.4331V22.4695C0.259766 26.6284 3.6312 29.9998 7.79008 29.9998H22.8507C26.8833 29.9998 30.1756 26.83 30.3718 22.846H23.6037C20.9005 22.846 18.709 20.6546 18.709 17.9513C18.709 15.2481 20.9005 13.0566 23.6037 13.0566H30.3718C30.1756 9.07268 26.8833 5.90283 22.8507 5.90283H7.79008Z" fill="#FFC8C8"/>
<path fill-rule="evenodd" clip-rule="evenodd" d="M23.6034 15.3159H30.3807V20.5871H23.6034C22.1478 20.5871 20.9678 19.4071 20.9678 17.9515C20.9678 16.4959 22.1478 15.3159 23.6034 15.3159ZM23.6034 16.822C22.9796 16.822 22.4738 17.3277 22.4738 17.9515C22.4738 18.5754 22.9796 19.0811 23.6034 19.0811H23.9046C24.5284 19.0811 25.0341 18.5754 25.0341 17.9515C25.0341 17.3277 24.5284 16.822 23.9046 16.822H23.6034Z" fill="white"/>
<path d="M26.5973 4.38634C25.5113 1.38721 22.3393 -0.549055 18.9971 0.139061L6.04384 2.8059C3.33837 3.36291 1.14647 5.14642 0 7.50393C1.78839 5.15787 4.61245 3.64382 7.79013 3.64382H22.8508C24.1778 3.64382 25.4432 3.90789 26.5973 4.38634Z" fill="white"/>
<path d="M10 15V22" stroke="white" stroke-width="2" stroke-linecap="round"/>
<path d="M6.5 18.5H13.5" stroke="white" stroke-width="2" stroke-linecap="round"/>
</svg>
