<svg width="34" height="27" viewBox="0 0 34 27" fill="none" xmlns="http://www.w3.org/2000/svg">
<circle opacity="0.3" cx="5.71429" cy="5.71429" r="5.71429" transform="matrix(-1 0 0 1 28.7144 1)" fill="#FF4747" stroke="#FF4747" stroke-width="1.5"/>
<path d="M13 20.9066C13 19.6775 13.7726 18.5811 14.9301 18.1677C20.1486 16.304 25.8514 16.304 31.0699 18.1677C32.2274 18.5811 33 19.6775 33 20.9066V23.6939C33 24.911 31.922 25.8459 30.7172 25.6738L26.8184 25.1168C24.2856 24.755 21.7144 24.755 19.1816 25.1168L15.2828 25.6738C14.078 25.8459 13 24.911 13 23.6939V20.9066Z" fill="#FF4747" stroke="#FF4747" stroke-width="1.5"/>
<circle cx="5.71429" cy="5.71429" r="5.71429" transform="matrix(-1 0 0 1 16.7144 1)" fill="#FF4747" stroke="#FF4747" stroke-width="1.5"/>
<path opacity="0.3" d="M1 20.9066C1 19.6775 1.77265 18.5811 2.93013 18.1677C8.14863 16.304 13.8514 16.304 19.0699 18.1677C20.2274 18.5811 21 19.6775 21 20.9066V23.6939C21 24.911 19.922 25.8459 18.7172 25.6738L14.8184 25.1168C12.2856 24.755 9.71435 24.755 7.18162 25.1168L3.28284 25.6738C2.07798 25.8459 1 24.911 1 23.6939V20.9066Z" fill="#FF4747" stroke="#FF4747" stroke-width="1.5"/>
</svg>
