<svg width="15" height="15" viewBox="0 0 15 15" fill="none" xmlns="http://www.w3.org/2000/svg">
<path d="M6.18183 0.215029C6.00608 0.0304889 5.74245 -0.0398122 5.4964 0.0246305C5.25034 0.0890731 5.05994 0.28533 4.9955 0.531384L4.78461 1.36562C4.64661 1.91149 4.08534 2.23587 3.54346 2.08292L2.71658 1.84953C2.47052 1.77923 2.20689 1.84953 2.02821 2.02821C1.84953 2.20689 1.77923 2.47052 1.84953 2.71658L2.08334 3.54495C2.23613 4.08626 1.91259 4.64705 1.36749 4.78573L0.531384 4.99843C0.28533 5.05995 0.0920023 5.25327 0.0246305 5.49933C-0.0427414 5.74538 0.0304889 6.00608 0.215029 6.18183L0.832873 6.78363C1.23588 7.17617 1.23588 7.82378 0.832874 8.21633L0.215029 8.81812C0.0304889 8.99388 -0.0398122 9.2575 0.0246305 9.50356C0.0890731 9.74961 0.28533 9.94001 0.531384 10.0045L1.36562 10.2153C1.91149 10.3533 2.23587 10.9146 2.08292 11.4565L1.84953 12.2834C1.77923 12.5294 1.84953 12.7931 2.02821 12.9717C2.20689 13.1504 2.47052 13.2207 2.71658 13.1504L3.54346 12.917C4.08534 12.7641 4.64661 13.0885 4.78461 13.6343L4.9955 14.4686C5.05702 14.7146 5.25034 14.908 5.4964 14.9753C5.74245 15.0427 6.00315 14.9695 6.18183 14.7879L6.78363 14.17C7.17617 13.767 7.82378 13.767 8.21633 14.17L8.81812 14.7879C8.99681 14.9695 9.2575 15.0427 9.50356 14.9753C9.74961 14.908 9.94001 14.7146 10.0045 14.4686L10.2153 13.6343C10.3533 13.0885 10.9146 12.7641 11.4565 12.917L12.2834 13.1504C12.5294 13.2207 12.7931 13.1504 12.9717 12.9717C13.1504 12.7931 13.2207 12.5294 13.1504 12.2834L12.917 11.4565C12.7641 10.9146 13.0885 10.3533 13.6343 10.2153L14.4686 10.0045C14.7146 9.94294 14.908 9.74961 14.9753 9.50356C15.0427 9.2575 14.9695 8.99388 14.7879 8.81812L14.17 8.21633C13.767 7.82378 13.767 7.17617 14.17 6.78363L14.7879 6.18183C14.9695 6.00315 15.0427 5.74245 14.9753 5.4964C14.908 5.25034 14.7146 5.05994 14.4686 4.9955L13.6343 4.78461C13.0885 4.64661 12.7641 4.08534 12.917 3.54346L13.1504 2.71658C13.2207 2.47052 13.1504 2.20689 12.9717 2.02821C12.7931 1.84953 12.5294 1.77923 12.2834 1.84953L11.455 2.08334C10.9137 2.23613 10.3529 1.91259 10.2142 1.36749L10.0015 0.531384C9.94001 0.28533 9.74668 0.0920023 9.50063 0.0246305C9.25458 -0.0427414 8.99388 0.0304889 8.81812 0.215029L8.21633 0.832873C7.82378 1.23588 7.17617 1.23588 6.78363 0.832874L6.18183 0.215029Z" fill="#FF4747"/>
<path d="M5 8H10" stroke="white" stroke-width="1.5" stroke-linecap="round"/>
</svg>
