<svg width="14" height="14" viewBox="0 0 14 14" fill="none" xmlns="http://www.w3.org/2000/svg">
<path d="M5.76971 0.200694C5.60567 0.0284563 5.35962 -0.037158 5.12997 0.0229884C4.90032 0.0831349 4.72261 0.266308 4.66247 0.495958L4.48243 1.20814C4.34443 1.75402 3.78316 2.0784 3.24128 1.92545L2.53547 1.72623C2.30582 1.66061 2.05977 1.72623 1.893 1.893C1.72623 2.05977 1.66061 2.30582 1.72623 2.53547L1.92587 3.24277C2.07866 3.78408 1.75511 4.34487 1.21002 4.48355L0.495958 4.6652C0.266308 4.72262 0.0858688 4.90305 0.0229884 5.1327C-0.039892 5.36235 0.0284563 5.60567 0.200694 5.76971L0.728319 6.28363C1.13133 6.67617 1.13133 7.32379 0.728319 7.71633L0.200694 8.23025C0.0284563 8.39428 -0.037158 8.64034 0.0229884 8.86999C0.0831349 9.09964 0.266308 9.27734 0.495958 9.33749L1.20814 9.51753C1.75402 9.65553 2.0784 10.2168 1.92545 10.7587L1.72623 11.4645C1.66061 11.6941 1.72623 11.9402 1.893 12.107C2.05977 12.2737 2.30582 12.3393 2.53547 12.2737L3.24128 12.0745C3.78316 11.9216 4.34443 12.2459 4.48243 12.7918L4.66247 13.504C4.71988 13.7336 4.90032 13.9141 5.12997 13.977C5.35962 14.0399 5.60294 13.9715 5.76971 13.802L6.28363 13.2744C6.67617 12.8714 7.32379 12.8714 7.71633 13.2744L8.23025 13.802C8.39702 13.9715 8.64034 14.0399 8.86999 13.977C9.09964 13.9141 9.27734 13.7336 9.33749 13.504L9.51753 12.7918C9.65553 12.2459 10.2168 11.9216 10.7587 12.0745L11.4645 12.2737C11.6941 12.3393 11.9402 12.2737 12.107 12.107C12.2737 11.9402 12.3393 11.6941 12.2737 11.4645L12.0745 10.7587C11.9216 10.2168 12.2459 9.65553 12.7918 9.51753L13.504 9.33749C13.7336 9.28008 13.9141 9.09964 13.977 8.86999C14.0399 8.64034 13.9715 8.39428 13.802 8.23025L13.2744 7.71633C12.8714 7.32379 12.8714 6.67617 13.2744 6.28363L13.802 5.76971C13.9715 5.60294 14.0399 5.35962 13.977 5.12997C13.9141 4.90032 13.7336 4.72261 13.504 4.66247L12.7918 4.48243C12.2459 4.34443 11.9216 3.78316 12.0745 3.24128L12.2737 2.53547C12.3393 2.30582 12.2737 2.05977 12.107 1.893C11.9402 1.72623 11.6941 1.66061 11.4645 1.72623L10.7572 1.92587C10.2159 2.07866 9.65508 1.75511 9.51641 1.21002L9.33476 0.495958C9.27734 0.266308 9.0969 0.0858688 8.86725 0.0229884C8.6376 -0.039892 8.39428 0.0284563 8.23025 0.200694L7.71633 0.728319C7.32379 1.13133 6.67617 1.13133 6.28363 0.728319L5.76971 0.200694Z" fill="#FF4747"/>
<path d="M10.1109 4.98342C10.3047 5.1947 10.3047 5.53783 10.1109 5.74912L6.8656 9.33315C6.67184 9.54444 6.35718 9.54444 6.16342 9.33315L3.88872 6.98785C3.69496 6.77656 3.69496 6.43343 3.88872 6.22214C4.08248 6.01085 4.39714 6.01085 4.5909 6.22214L6.51529 8.18375L9.41031 4.98342C9.60407 4.77213 9.91717 4.77213 10.1109 4.98342Z" fill="white"/>
</svg>
