<svg width="57" height="57" viewBox="0 0 57 57" fill="none" xmlns="http://www.w3.org/2000/svg">
<rect width="57" height="57" rx="28.5" fill="#FF4747" fill-opacity="0.1"/>
<path d="M40.2071 16.65C37.2143 13.65 33.2286 12 28.9929 12C20.25 12 13.1357 19.1143 13.1357 27.8571C13.1357 30.65 13.8643 33.3786 15.25 35.7857L13 44L21.4071 41.7929C23.7214 43.0571 26.3286 43.7214 28.9857 43.7214H28.9929C37.7286 43.7214 45 36.6071 45 27.8643C45 23.6286 43.2 19.65 40.2071 16.65ZM28.9929 41.05C26.6214 41.05 24.3 40.4143 22.2786 39.2143L21.8 38.9286L16.8143 40.2357L18.1429 35.3714L17.8286 34.8714C16.5071 32.7714 15.8143 30.35 15.8143 27.8571C15.8143 20.5929 21.7286 14.6786 29 14.6786C32.5214 14.6786 35.8286 16.05 38.3143 18.5429C40.8 21.0357 42.3286 24.3429 42.3214 27.8643C42.3214 35.1357 36.2571 41.05 28.9929 41.05ZM36.2214 31.1786C35.8286 30.9786 33.8786 30.0214 33.5143 29.8929C33.15 29.7571 32.8857 29.6929 32.6214 30.0929C32.3571 30.4929 31.6 31.3786 31.3643 31.65C31.1357 31.9143 30.9 31.95 30.5071 31.75C28.1786 30.5857 26.65 29.6714 25.1143 27.0357C24.7071 26.3357 25.5214 26.3857 26.2786 24.8714C26.4071 24.6071 26.3429 24.3786 26.2429 24.1786C26.1429 23.9786 25.35 22.0286 25.0214 21.2357C24.7 20.4643 24.3714 20.5714 24.1286 20.5571C23.9 20.5429 23.6357 20.5429 23.3714 20.5429C23.1071 20.5429 22.6786 20.6429 22.3143 21.0357C21.95 21.4357 20.9286 22.3929 20.9286 24.3429C20.9286 26.2929 22.35 28.1786 22.5429 28.4429C22.7429 28.7071 25.3357 32.7071 29.3143 34.4286C31.8286 35.5143 32.8143 35.6071 34.0714 35.4214C34.8357 35.3071 36.4143 34.4643 36.7429 33.5357C37.0714 32.6071 37.0714 31.8143 36.9714 31.65C36.8786 31.4714 36.6143 31.3714 36.2214 31.1786Z" fill="#FF4747"/>
</svg>
