<svg width="57" height="57" viewBox="0 0 57 57" fill="none" xmlns="http://www.w3.org/2000/svg">
<rect width="57" height="57" rx="28.5" fill="#FF4747" fill-opacity="0.1"/>
<path d="M44.8148 20.5997C44.4282 19.1802 43.2931 18.0661 41.8512 17.6888C39.2373 17 28.7571 17 28.7571 17C28.7571 17 18.277 17 15.6631 17.6888C14.2212 18.0661 13.0861 19.1802 12.6995 20.5997C12 23.1693 12 28.524 12 28.524C12 28.524 12 33.8786 12.6995 36.4482C13.0861 37.8677 14.2212 38.9339 15.6631 39.3112C18.277 40 28.7571 40 28.7571 40C28.7571 40 39.2373 40 41.8512 39.3112C43.2931 38.9339 44.4282 37.8617 44.8148 36.4482C45.5143 33.8786 45.5143 28.524 45.5143 28.524C45.5143 28.524 45.5143 23.1693 44.8148 20.5997ZM25.3333 33.3875V23.6604L34.0892 28.524L25.3333 33.3875Z" fill="#FF4747"/>
</svg>
