<svg width="27" height="28" viewBox="0 0 27 28" fill="none" xmlns="http://www.w3.org/2000/svg">
<path fill-rule="evenodd" clip-rule="evenodd" d="M13.5637 1C12.6877 1 11.8117 1.28682 11.0851 1.86047L2.52142 8.62127C1.56058 9.37983 1 10.5366 1 11.7608V22.3535C1 24.5627 2.79086 26.3535 5 26.3535H8.5962C9.14849 26.3535 9.5962 25.9058 9.5962 25.3535V20.4186C9.5962 19.314 10.4916 18.4186 11.5962 18.4186H13.5637V1Z" fill="#FF4747"/>
<path d="M11.0851 1.86047L11.5498 2.44913V2.44913L11.0851 1.86047ZM13.5637 1H14.3137V0.25H13.5637V1ZM2.52142 8.62127L2.98616 9.20993H2.98616L2.52142 8.62127ZM13.5637 18.4186V19.1686H14.3137V18.4186H13.5637ZM11.5498 2.44913C12.1403 1.98299 12.8514 1.75 13.5637 1.75V0.25C12.524 0.25 11.4832 0.590661 10.6204 1.27181L11.5498 2.44913ZM2.98616 9.20993L11.5498 2.44913L10.6204 1.27181L2.05669 8.03261L2.98616 9.20993ZM1.75 11.7608C1.75 10.7661 2.20547 9.82626 2.98616 9.20993L2.05669 8.03261C0.915688 8.9334 0.25 10.3071 0.25 11.7608H1.75ZM1.75 22.3535V11.7608H0.25V22.3535H1.75ZM5 25.6035C3.20507 25.6035 1.75 24.1485 1.75 22.3535H0.25C0.25 24.9769 2.37665 27.1035 5 27.1035V25.6035ZM8.5962 25.6035H5V27.1035H8.5962V25.6035ZM8.8462 25.3535C8.8462 25.4916 8.73427 25.6035 8.5962 25.6035V27.1035C9.5627 27.1035 10.3462 26.32 10.3462 25.3535H8.8462ZM8.8462 20.4186V25.3535H10.3462V20.4186H8.8462ZM11.5962 17.6686C10.0774 17.6686 8.8462 18.8998 8.8462 20.4186H10.3462C10.3462 19.7282 10.9058 19.1686 11.5962 19.1686V17.6686ZM13.5637 17.6686H11.5962V19.1686H13.5637V17.6686ZM14.3137 18.4186V1H12.8137V18.4186H14.3137Z" fill="#FF4747"/>
<g opacity="0.3">
<path fill-rule="evenodd" clip-rule="evenodd" d="M13.5638 1C14.4397 1 15.3157 1.28682 16.0423 1.86047L24.606 8.62127C25.5669 9.37983 26.1274 10.5366 26.1274 11.7608V22.3535C26.1274 24.5627 24.3366 26.3535 22.1274 26.3535H18.5312C17.979 26.3535 17.5312 25.9058 17.5312 25.3535V20.4186C17.5312 19.314 16.6358 18.4186 15.5312 18.4186H13.5638V1Z" fill="#FF4747"/>
<path d="M16.0423 1.86047L15.5776 2.44913V2.44913L16.0423 1.86047ZM13.5638 1H12.8138V0.25H13.5638V1ZM24.606 8.62127L24.1413 9.20993H24.1413L24.606 8.62127ZM13.5638 18.4186V19.1686H12.8138V18.4186H13.5638ZM15.5776 2.44913C14.9872 1.98299 14.276 1.75 13.5638 1.75V0.25C14.6035 0.25 15.6443 0.590661 16.5071 1.27181L15.5776 2.44913ZM24.1413 9.20993L15.5776 2.44913L16.5071 1.27181L25.0708 8.03261L24.1413 9.20993ZM25.3774 11.7608C25.3774 10.7661 24.922 9.82626 24.1413 9.20993L25.0708 8.03261C26.2118 8.9334 26.8774 10.3071 26.8774 11.7608H25.3774ZM25.3774 22.3535V11.7608H26.8774V22.3535H25.3774ZM22.1274 25.6035C23.9224 25.6035 25.3774 24.1485 25.3774 22.3535H26.8774C26.8774 24.9769 24.7508 27.1035 22.1274 27.1035V25.6035ZM18.5312 25.6035H22.1274V27.1035H18.5312V25.6035ZM18.2812 25.3535C18.2812 25.4916 18.3932 25.6035 18.5312 25.6035V27.1035C17.5647 27.1035 16.7812 26.32 16.7812 25.3535H18.2812ZM18.2812 20.4186V25.3535H16.7812V20.4186H18.2812ZM15.5312 17.6686C17.05 17.6686 18.2812 18.8998 18.2812 20.4186H16.7812C16.7812 19.7282 16.2216 19.1686 15.5312 19.1686V17.6686ZM13.5638 17.6686H15.5312V19.1686H13.5638V17.6686ZM12.8138 18.4186V1H14.3138V18.4186H12.8138Z" fill="#FF4747"/>
</g>
</svg>
