<svg width="73" height="73" viewBox="0 0 73 73" fill="none" xmlns="http://www.w3.org/2000/svg">
<circle cx="36.5" cy="36.5" r="33.5" fill="#FF4747" stroke="white" stroke-width="6"/>
<path d="M37 21C28.1677 21 21 28.1677 21 37C21 45.8323 28.1677 53 37 53C45.8323 53 53 45.8323 53 37C53 28.1677 45.8323 21 37 21ZM44.3935 35.6065L37.1032 45.4581L29.8323 35.6065C29.271 34.8387 28.6 32.3548 30.7097 30.9613C32.5226 29.7935 34.2323 30.6903 35.129 31.729C36.1548 32.8839 38.1355 32.8194 39.1097 31.729C40.0065 30.6903 41.7161 29.7935 43.5032 30.9613C45.6258 32.3548 44.9613 34.8323 44.3935 35.6065Z" fill="#FFC8C8"/>
</svg>
