<svg width="28" height="26" viewBox="0 0 28 26" fill="none" xmlns="http://www.w3.org/2000/svg">
<path d="M14.1693 7.17375C13.9871 7.1031 13.7918 7.06592 13.5879 7.06592C13.3839 7.06592 13.1887 7.1031 13.0064 7.17375L4.83596 10.1448C3.88136 10.4906 3.16975 11.2975 3.17409 12.2717C3.19579 15.9604 4.96613 22.7093 12.4424 25.777C13.167 26.0745 14.0088 26.0745 14.7334 25.777C22.2096 22.7093 23.98 15.9604 24.0017 12.2717C24.006 11.2975 23.2944 10.4906 22.3398 10.1448L14.1693 7.17375ZM8.72811 15.2948C8.72811 14.038 9.91702 13.0154 11.388 13.0154C12.0909 13.0154 12.7678 13.2571 13.2668 13.681L13.5879 13.9562L13.909 13.681C14.408 13.2534 15.0849 13.0154 15.7878 13.0154C17.2544 13.0154 18.4477 14.0342 18.4477 15.2948C18.4477 15.8972 18.1656 16.4772 17.671 16.9049L14.0825 19.98C13.8135 20.2105 13.3709 20.2105 13.1019 19.98L9.51349 16.9049C9.01449 16.4772 8.73679 15.8972 8.73679 15.2948H8.72811Z" fill="#FF4747"/>
<circle cx="3.26089" cy="3.26089" r="3.26089" transform="matrix(-1 0 0 1 7.52173 1)" fill="#FF4747" stroke="#FF4747" stroke-width="1.5"/>
<circle cx="3.26089" cy="3.26089" r="3.26089" transform="matrix(-1 0 0 1 27.0872 1)" fill="#F8C0C0" stroke="#F8C0C0" stroke-width="1.5"/>
<mask id="mask0_108_12996" style="mask-type:alpha" maskUnits="userSpaceOnUse" x="3" y="7" width="21" height="19">
<path d="M14.1667 7.17375C13.9845 7.1031 13.7893 7.06592 13.5854 7.06592C13.3815 7.06592 13.1863 7.1031 13.0041 7.17375L4.83536 10.1448C3.88097 10.4906 3.16951 11.2975 3.17385 12.2717C3.19554 15.9604 4.96551 22.7093 12.4402 25.777C13.1646 26.0745 14.0062 26.0745 14.7307 25.777C22.2054 22.7093 23.9753 15.9604 23.997 12.2717C24.0014 11.2975 23.2899 10.4906 22.3355 10.1448L14.1667 7.17375ZM8.72669 15.2948C8.72669 14.038 9.91535 13.0154 11.386 13.0154C12.0888 13.0154 12.7655 13.2571 13.2644 13.681L13.5854 13.9562L13.9065 13.681C14.4053 13.2534 15.0821 13.0154 15.7849 13.0154C17.2512 13.0154 18.4442 14.0342 18.4442 15.2948C18.4442 15.8972 18.1622 16.4772 17.6676 16.9049L14.08 19.98C13.811 20.2105 13.3685 20.2105 13.0996 19.98L9.5119 16.9049C9.01301 16.4772 8.73537 15.8972 8.73537 15.2948H8.72669Z" fill="#FF4747"/>
</mask>
<g mask="url(#mask0_108_12996)">
<rect x="2.2854" y="7.06592" width="11.5499" height="20.5614" fill="#F8C0C0"/>
</g>
</svg>
