<svg width="32" height="25" viewBox="0 0 32 25" fill="none" xmlns="http://www.w3.org/2000/svg">
<path d="M17.3705 2.64326L16.2118 0.30945C16.0203 -0.0957937 15.4213 -0.110441 15.2102 0.30945L14.0515 2.64326L11.4838 3.00944C11.0272 3.0778 10.8308 3.63928 11.1695 3.97617L13.0352 5.78268L12.5934 8.32643C12.5246 8.7805 12.9959 9.13204 13.4182 8.92209L15.7208 7.71124L18.0087 8.90256C18.431 9.11251 18.9072 8.76097 18.8336 8.3069L18.3917 5.76315L20.2574 3.97617C20.5912 3.64416 20.3998 3.08268 19.9432 3.00944L17.3754 2.64326H17.3705ZM12.5688 12.5009C11.6998 12.5009 10.9977 13.1991 10.9977 14.0633V23.4376C10.9977 24.3018 11.6998 25 12.5688 25H18.8532C19.7222 25 20.4243 24.3018 20.4243 23.4376V14.0633C20.4243 13.1991 19.7222 12.5009 18.8532 12.5009H12.5688ZM1.5711 15.6257C0.702086 15.6257 0 16.3239 0 17.1881V23.4376C0 24.3018 0.702086 25 1.5711 25H7.8555C8.72452 25 9.4266 24.3018 9.4266 23.4376V17.1881C9.4266 16.3239 8.72452 15.6257 7.8555 15.6257H1.5711ZM21.9954 20.3128V23.4376C21.9954 24.3018 22.6975 25 23.5665 25H29.8509C30.7199 25 31.422 24.3018 31.422 23.4376V20.3128C31.422 19.4487 30.7199 18.7505 29.8509 18.7505H23.5665C22.6975 18.7505 21.9954 19.4487 21.9954 20.3128Z" fill="#FF4747"/>
<path d="M17.3703 2.64326L16.2116 0.30945C16.0202 -0.0957937 15.4212 -0.110441 15.2101 0.30945L14.0514 2.64326L11.4836 3.00944C11.027 3.0778 10.8306 3.63928 11.1694 3.97617L13.0351 5.78268L12.5932 8.32643C12.5245 8.7805 12.9958 9.13204 13.418 8.92209L15.7207 7.71124L18.0086 8.90256C18.4308 9.11251 18.9071 8.76097 18.8334 8.3069L18.3916 5.76315L20.2572 3.97617C20.5911 3.64416 20.3996 3.08268 19.943 3.00944L17.3752 2.64326H17.3703ZM12.5687 12.5009C11.6996 12.5009 10.9976 13.1991 10.9976 14.0633V23.4376C10.9976 24.3018 11.6996 25 12.5687 25H18.8531C19.7221 25 20.4242 24.3018 20.4242 23.4376V14.0633C20.4242 13.1991 19.7221 12.5009 18.8531 12.5009H12.5687Z" fill="#FFC8C8"/>
</svg>
