<svg width="80" height="80" viewBox="0 0 80 80" fill="none" xmlns="http://www.w3.org/2000/svg">
<rect opacity="0.8" width="80" height="80" rx="10" fill="#FF5151" fill-opacity="0.05"/>
<g clip-path="url(#clip0_108_12673)">
<circle cx="40.5" cy="40.5" r="21.2" fill="#FF4747"/>
<path d="M40.7905 31.4973C35.6605 31.4973 31.4973 35.6605 31.4973 40.7905C31.4973 45.9204 35.6605 50.0836 40.7905 50.0836C45.9204 50.0836 50.0836 45.9204 50.0836 40.7905C50.0836 35.6605 45.9204 31.4973 40.7905 31.4973ZM45.0848 39.9811L40.8504 45.7031L36.6273 39.9811C36.3013 39.5351 35.9116 38.0925 37.1369 37.2831C38.1899 36.6048 39.1829 37.1257 39.7038 37.729C40.2996 38.3997 41.45 38.3623 42.0158 37.729C42.5367 37.1257 43.5297 36.6048 44.5677 37.2831C45.8005 38.0925 45.4146 39.5314 45.0848 39.9811Z" fill="#F8C0C0"/>
</g>
<defs>
<clipPath id="clip0_108_12673">
<rect width="53" height="53" fill="white" transform="translate(14 14)"/>
</clipPath>
</defs>
</svg>
