<svg width="80" height="80" viewBox="0 0 80 80" fill="none" xmlns="http://www.w3.org/2000/svg">
<rect opacity="0.8" width="80" height="80" rx="10" fill="#FF5151" fill-opacity="0.05"/>
<path d="M40.2025 29.9397C39.9091 29.826 39.5947 29.7661 39.2664 29.7661C38.938 29.7661 38.6237 29.826 38.3303 29.9397L25.1759 34.723C23.639 35.2798 22.4933 36.5789 22.5003 38.1474C22.5352 44.0861 25.3854 54.9518 37.4221 59.8908C38.5887 60.3697 39.944 60.3697 41.1106 59.8908C53.1473 54.9518 55.9975 44.0861 56.0325 38.1474C56.0395 36.5789 54.8938 35.2798 53.3569 34.723L40.2025 29.9397ZM31.4422 43.0145C31.4422 40.991 33.3563 39.3447 35.7245 39.3447C36.8562 39.3447 37.946 39.7338 38.7494 40.4163L39.2664 40.8593L39.7833 40.4163C40.5867 39.7278 41.6765 39.3447 42.8082 39.3447C45.1694 39.3447 47.0906 40.985 47.0906 43.0145C47.0906 43.9843 46.6365 44.9183 45.8401 45.6067L40.0628 50.5576C39.6296 50.9288 38.9171 50.9288 38.484 50.5576L32.7066 45.6067C31.9033 44.9183 31.4562 43.9843 31.4562 43.0145H31.4422Z" fill="#FF4747"/>
<circle cx="5.25" cy="5.25" r="5.25" transform="matrix(-1 0 0 1 29.5 20)" fill="#FF4747" stroke="#FF4747" stroke-width="1.5"/>
<circle cx="5.25" cy="5.25" r="5.25" transform="matrix(-1 0 0 1 61 20)" fill="#F8C0C0" stroke="#F8C0C0" stroke-width="1.5"/>
<mask id="mask0_108_12667" style="mask-type:alpha" maskUnits="userSpaceOnUse" x="22" y="29" width="35" height="32">
<path d="M40.1982 29.9397C39.9049 29.826 39.5906 29.7661 39.2623 29.7661C38.9341 29.7661 38.6198 29.826 38.3264 29.9397L25.1748 34.723C23.6382 35.2798 22.4928 36.5789 22.4998 38.1474C22.5347 44.0861 25.3843 54.9518 37.4184 59.8908C38.5848 60.3697 39.9398 60.3697 41.1062 59.8908C53.1403 54.9518 55.9899 44.0861 56.0249 38.1474C56.0318 36.5789 54.8864 35.2798 53.3498 34.723L40.1982 29.9397ZM31.4398 43.0145C31.4398 40.991 33.3535 39.3447 35.7212 39.3447C36.8527 39.3447 37.9423 39.7338 38.7455 40.4163L39.2623 40.8593L39.7792 40.4163C40.5824 39.7278 41.6719 39.3447 42.8034 39.3447C45.1641 39.3447 47.0848 40.985 47.0848 43.0145C47.0848 43.9843 46.6309 44.9183 45.8346 45.6067L40.0585 50.5576C39.6255 50.9288 38.9131 50.9288 38.4801 50.5576L32.704 45.6067C31.9008 44.9183 31.4538 43.9843 31.4538 43.0145H31.4398Z" fill="#FF4747"/>
</mask>
<g mask="url(#mask0_108_12667)">
<rect x="21.0696" y="29.7661" width="18.5952" height="33.1036" fill="#F8C0C0"/>
</g>
</svg>
