<svg width="80" height="80" viewBox="0 0 80 80" fill="none" xmlns="http://www.w3.org/2000/svg">
<rect width="80" height="80" rx="10" fill="#FF5151" fill-opacity="0.05"/>
<mask id="mask0_108_12660" style="mask-type:alpha" maskUnits="userSpaceOnUse" x="18" y="20" width="43" height="39">
<rect x="18" y="20" width="43" height="39" rx="2" fill="#FF4747"/>
</mask>
<g mask="url(#mask0_108_12660)">
<rect x="18" y="20" width="43" height="39" rx="2" fill="#FF4747"/>
<rect x="21" y="39.5" width="5" height="13.9286" rx="1" fill="#FFF6F6"/>
<rect x="21" y="24.1785" width="37" height="11.1429" rx="2" fill="#FFF6F6"/>
<rect x="36" y="39.5" width="5" height="5.57143" rx="1" fill="#FFF6F6"/>
<rect x="36" y="47.8572" width="5" height="5.57143" rx="1" fill="#FFF6F6"/>
<rect x="29" y="39.5" width="5" height="5.57143" rx="1" fill="#FFF6F6"/>
<rect x="44" y="39.5" width="5" height="5.57143" rx="1" fill="#FFF6F6"/>
<rect x="44" y="47.8572" width="5" height="5.57143" rx="1" fill="#FFF6F6"/>
<rect x="29" y="47.8572" width="5" height="5.57143" rx="1" fill="#FFF6F6"/>
<rect x="51" y="39.5" width="5" height="13.9286" rx="1" fill="#FFF6F6"/>
<mask id="mask1_108_12660" style="mask-type:alpha" maskUnits="userSpaceOnUse" x="15" y="-4" width="69" height="67">
<path d="M15.3286 18.022L34.3667 -2.98853C35.1084 -3.80705 36.3732 -3.86934 37.1917 -3.12766L82.8588 38.2524C83.6774 38.9941 83.7397 40.2589 82.998 41.0774L63.9599 62.0879L15.3286 18.022Z" fill="#F8C0C0"/>
</mask>
<g mask="url(#mask1_108_12660)">
<path d="M18 22C18 20.8954 18.8954 20 20 20H59C60.1046 20 61 20.8954 61 22V57C61 58.1046 60.1046 59 59 59H20C18.8954 59 18 58.1046 18 57V22Z" fill="#F8C0C0"/>
<path d="M21 39.5H25C25.5523 39.5 26 39.9477 26 40.5V52.4286C26 52.9809 25.5523 53.4286 25 53.4286H21V39.5Z" fill="#FFF6F6"/>
<path d="M21 24.1785H56C57.1046 24.1785 58 25.0739 58 26.1785V33.3213C58 34.4259 57.1046 35.3213 56 35.3213H21V24.1785Z" fill="#FFF6F6"/>
<path d="M33.4917 26.9961V32H32.8594V27.7856L31.5845 28.2505V27.6797L33.3926 26.9961H33.4917ZM35.4297 31.665C35.4297 31.5579 35.4627 31.4679 35.5288 31.395C35.5972 31.3198 35.6951 31.2822 35.8228 31.2822C35.9504 31.2822 36.0472 31.3198 36.1133 31.395C36.1816 31.4679 36.2158 31.5579 36.2158 31.665C36.2158 31.7699 36.1816 31.8587 36.1133 31.9316C36.0472 32.0046 35.9504 32.041 35.8228 32.041C35.6951 32.041 35.5972 32.0046 35.5288 31.9316C35.4627 31.8587 35.4297 31.7699 35.4297 31.665ZM40.3208 29.1152V29.874C40.3208 30.2819 40.2843 30.626 40.2114 30.9062C40.1385 31.1865 40.0337 31.4121 39.897 31.583C39.7603 31.7539 39.5951 31.8781 39.4014 31.9556C39.21 32.0308 38.9935 32.0684 38.752 32.0684C38.5605 32.0684 38.384 32.0444 38.2222 31.9966C38.0604 31.9487 37.9146 31.8724 37.7847 31.7676C37.6571 31.6605 37.5477 31.5215 37.4565 31.3506C37.3654 31.1797 37.2959 30.9723 37.248 30.7285C37.2002 30.4847 37.1763 30.1999 37.1763 29.874V29.1152C37.1763 28.7074 37.2127 28.3656 37.2856 28.0898C37.3608 27.8141 37.4668 27.5931 37.6035 27.4268C37.7402 27.2581 37.9043 27.1374 38.0957 27.0645C38.2894 26.9915 38.5059 26.9551 38.7451 26.9551C38.9388 26.9551 39.1165 26.979 39.2783 27.0269C39.4424 27.0724 39.5882 27.1465 39.7158 27.249C39.8434 27.3493 39.9517 27.4837 40.0405 27.6523C40.1317 27.8187 40.2012 28.0226 40.249 28.2642C40.2969 28.5057 40.3208 28.7894 40.3208 29.1152ZM39.6851 29.9766V29.0093C39.6851 28.786 39.6714 28.59 39.644 28.4214C39.619 28.2505 39.5814 28.1047 39.5312 27.9839C39.4811 27.8631 39.4173 27.7651 39.3398 27.6899C39.2646 27.6147 39.1769 27.5601 39.0767 27.5259C38.9787 27.4894 38.8682 27.4712 38.7451 27.4712C38.5947 27.4712 38.4614 27.4997 38.3452 27.5566C38.229 27.6113 38.131 27.6991 38.0513 27.8198C37.9738 27.9406 37.9146 28.099 37.8735 28.2949C37.8325 28.4909 37.812 28.729 37.812 29.0093V29.9766C37.812 30.1999 37.8245 30.397 37.8496 30.5679C37.877 30.7388 37.9168 30.8869 37.9692 31.0122C38.0216 31.1353 38.0854 31.2367 38.1606 31.3164C38.2358 31.3962 38.3224 31.4554 38.4204 31.4941C38.5207 31.5306 38.6312 31.5488 38.752 31.5488C38.9069 31.5488 39.0425 31.5192 39.1587 31.46C39.2749 31.4007 39.3717 31.3084 39.4492 31.1831C39.529 31.0555 39.5882 30.8926 39.627 30.6943C39.6657 30.4938 39.6851 30.2546 39.6851 29.9766ZM44.2583 29.1152V29.874C44.2583 30.2819 44.2218 30.626 44.1489 30.9062C44.076 31.1865 43.9712 31.4121 43.8345 31.583C43.6978 31.7539 43.5326 31.8781 43.3389 31.9556C43.1475 32.0308 42.931 32.0684 42.6895 32.0684C42.498 32.0684 42.3215 32.0444 42.1597 31.9966C41.9979 31.9487 41.8521 31.8724 41.7222 31.7676C41.5946 31.6605 41.4852 31.5215 41.394 31.3506C41.3029 31.1797 41.2334 30.9723 41.1855 30.7285C41.1377 30.4847 41.1138 30.1999 41.1138 29.874V29.1152C41.1138 28.7074 41.1502 28.3656 41.2231 28.0898C41.2983 27.8141 41.4043 27.5931 41.541 27.4268C41.6777 27.2581 41.8418 27.1374 42.0332 27.0645C42.2269 26.9915 42.4434 26.9551 42.6826 26.9551C42.8763 26.9551 43.054 26.979 43.2158 27.0269C43.3799 27.0724 43.5257 27.1465 43.6533 27.249C43.7809 27.3493 43.8892 27.4837 43.978 27.6523C44.0692 27.8187 44.1387 28.0226 44.1865 28.2642C44.2344 28.5057 44.2583 28.7894 44.2583 29.1152ZM43.6226 29.9766V29.0093C43.6226 28.786 43.6089 28.59 43.5815 28.4214C43.5565 28.2505 43.5189 28.1047 43.4688 27.9839C43.4186 27.8631 43.3548 27.7651 43.2773 27.6899C43.2021 27.6147 43.1144 27.5601 43.0142 27.5259C42.9162 27.4894 42.8057 27.4712 42.6826 27.4712C42.5322 27.4712 42.3989 27.4997 42.2827 27.5566C42.1665 27.6113 42.0685 27.6991 41.9888 27.8198C41.9113 27.9406 41.8521 28.099 41.811 28.2949C41.77 28.4909 41.7495 28.729 41.7495 29.0093V29.9766C41.7495 30.1999 41.762 30.397 41.7871 30.5679C41.8145 30.7388 41.8543 30.8869 41.9067 31.0122C41.9591 31.1353 42.0229 31.2367 42.0981 31.3164C42.1733 31.3962 42.2599 31.4554 42.3579 31.4941C42.4582 31.5306 42.5687 31.5488 42.6895 31.5488C42.8444 31.5488 42.98 31.5192 43.0962 31.46C43.2124 31.4007 43.3092 31.3084 43.3867 31.1831C43.4665 31.0555 43.5257 30.8926 43.5645 30.6943C43.6032 30.4938 43.6226 30.2546 43.6226 29.9766ZM48.1958 29.1152V29.874C48.1958 30.2819 48.1593 30.626 48.0864 30.9062C48.0135 31.1865 47.9087 31.4121 47.772 31.583C47.6353 31.7539 47.4701 31.8781 47.2764 31.9556C47.085 32.0308 46.8685 32.0684 46.627 32.0684C46.4355 32.0684 46.259 32.0444 46.0972 31.9966C45.9354 31.9487 45.7896 31.8724 45.6597 31.7676C45.5321 31.6605 45.4227 31.5215 45.3315 31.3506C45.2404 31.1797 45.1709 30.9723 45.123 30.7285C45.0752 30.4847 45.0513 30.1999 45.0513 29.874V29.1152C45.0513 28.7074 45.0877 28.3656 45.1606 28.0898C45.2358 27.8141 45.3418 27.5931 45.4785 27.4268C45.6152 27.2581 45.7793 27.1374 45.9707 27.0645C46.1644 26.9915 46.3809 26.9551 46.6201 26.9551C46.8138 26.9551 46.9915 26.979 47.1533 27.0269C47.3174 27.0724 47.4632 27.1465 47.5908 27.249C47.7184 27.3493 47.8267 27.4837 47.9155 27.6523C48.0067 27.8187 48.0762 28.0226 48.124 28.2642C48.1719 28.5057 48.1958 28.7894 48.1958 29.1152ZM47.5601 29.9766V29.0093C47.5601 28.786 47.5464 28.59 47.519 28.4214C47.494 28.2505 47.4564 28.1047 47.4062 27.9839C47.3561 27.8631 47.2923 27.7651 47.2148 27.6899C47.1396 27.6147 47.0519 27.5601 46.9517 27.5259C46.8537 27.4894 46.7432 27.4712 46.6201 27.4712C46.4697 27.4712 46.3364 27.4997 46.2202 27.5566C46.104 27.6113 46.006 27.6991 45.9263 27.8198C45.8488 27.9406 45.7896 28.099 45.7485 28.2949C45.7075 28.4909 45.687 28.729 45.687 29.0093V29.9766C45.687 30.1999 45.6995 30.397 45.7246 30.5679C45.752 30.7388 45.7918 30.8869 45.8442 31.0122C45.8966 31.1353 45.9604 31.2367 46.0356 31.3164C46.1108 31.3962 46.1974 31.4554 46.2954 31.4941C46.3957 31.5306 46.5062 31.5488 46.627 31.5488C46.7819 31.5488 46.9175 31.5192 47.0337 31.46C47.1499 31.4007 47.2467 31.3084 47.3242 31.1831C47.404 31.0555 47.4632 30.8926 47.502 30.6943C47.5407 30.4938 47.5601 30.2546 47.5601 29.9766Z" fill="#F8C0C0"/>
<path d="M36 39.5H40C40.5523 39.5 41 39.9477 41 40.5V44.0714C41 44.6237 40.5523 45.0714 40 45.0714H36V39.5Z" fill="#FFF6F6"/>
<path d="M36 47.8569H40C40.5523 47.8569 41 48.3046 41 48.8569V52.4284C41 52.9806 40.5523 53.4284 40 53.4284H36V47.8569Z" fill="#FFF6F6"/>
<path d="M29 39.5H33C33.5523 39.5 34 39.9477 34 40.5V44.0714C34 44.6237 33.5523 45.0714 33 45.0714H29V39.5Z" fill="#FFF6F6"/>
<path d="M44 39.5H48C48.5523 39.5 49 39.9477 49 40.5V44.0714C49 44.6237 48.5523 45.0714 48 45.0714H44V39.5Z" fill="#FFF6F6"/>
<path d="M44 47.8569H48C48.5523 47.8569 49 48.3046 49 48.8569V52.4284C49 52.9806 48.5523 53.4284 48 53.4284H44V47.8569Z" fill="#FFF6F6"/>
<path d="M29 47.8569H33C33.5523 47.8569 34 48.3046 34 48.8569V52.4284C34 52.9806 33.5523 53.4284 33 53.4284H29V47.8569Z" fill="#FFF6F6"/>
<path d="M51 39.5H55C55.5523 39.5 56 39.9477 56 40.5V52.4286C56 52.9809 55.5523 53.4286 55 53.4286H51V39.5Z" fill="#FFF6F6"/>
</g>
</g>
</svg>
