<svg width="80" height="80" viewBox="0 0 80 80" fill="none" xmlns="http://www.w3.org/2000/svg">
<rect opacity="0.8" width="80" height="80" rx="10" fill="#FF5151" fill-opacity="0.05"/>
<g clip-path="url(#clip0_365_903)">
<path d="M30.3752 22.5833C31.3984 22.5833 32.4116 22.7848 33.3569 23.1764C34.3022 23.5679 35.1612 24.1419 35.8847 24.8654C36.6082 25.5889 37.1822 26.4478 37.5737 27.3932C37.9653 28.3385 38.1668 29.3517 38.1668 30.3749V38.1666H30.3752C28.3087 38.1666 26.3268 37.3457 24.8656 35.8845C23.4044 34.4232 22.5835 32.4414 22.5835 30.3749C22.5835 28.3084 23.4044 26.3266 24.8656 24.8654C26.3268 23.4042 28.3087 22.5833 30.3752 22.5833ZM34.5002 34.4999V30.3749C34.5002 29.5591 34.2582 28.7615 33.805 28.0832C33.3517 27.4048 32.7075 26.8761 31.9537 26.5639C31.2 26.2517 30.3706 26.17 29.5704 26.3292C28.7702 26.4883 28.0352 26.8812 27.4584 27.4581C26.8815 28.035 26.4886 28.77 26.3294 29.5702C26.1703 30.3703 26.252 31.1997 26.5642 31.9535C26.8764 32.7072 27.4051 33.3515 28.0834 33.8047C28.7618 34.258 29.5593 34.4999 30.3752 34.4999H34.5002ZM30.3752 41.8333H38.1668V49.6249C38.1668 51.166 37.7099 52.6724 36.8537 53.9537C35.9975 55.2351 34.7806 56.2337 33.3569 56.8235C31.9332 57.4132 30.3665 57.5675 28.8551 57.2669C27.3437 56.9662 25.9553 56.2241 24.8656 55.1345C23.7759 54.0448 23.0339 52.6564 22.7332 51.145C22.4326 49.6336 22.5869 48.0669 23.1766 46.6432C23.7663 45.2194 24.765 44.0025 26.0463 43.1464C27.3277 42.2902 28.8341 41.8333 30.3752 41.8333ZM30.3752 45.4999C29.5593 45.4999 28.7618 45.7418 28.0834 46.1951C27.4051 46.6484 26.8764 47.2926 26.5642 48.0463C26.252 48.8001 26.1703 49.6295 26.3294 50.4297C26.4886 51.2298 26.8815 51.9648 27.4584 52.5417C28.0352 53.1186 28.7702 53.5115 29.5704 53.6707C30.3706 53.8298 31.2 53.7481 31.9537 53.4359C32.7075 53.1237 33.3517 52.595 33.805 51.9166C34.2582 51.2383 34.5002 50.4408 34.5002 49.6249V45.4999H30.3752ZM49.6252 22.5833C51.6916 22.5833 53.6735 23.4042 55.1347 24.8654C56.5959 26.3266 57.4168 28.3084 57.4168 30.3749C57.4168 32.4414 56.5959 34.4232 55.1347 35.8845C53.6735 37.3457 51.6916 38.1666 49.6252 38.1666H41.8335V30.3749C41.8335 28.3084 42.6544 26.3266 44.1156 24.8654C45.5768 23.4042 47.5587 22.5833 49.6252 22.5833ZM49.6252 34.4999C50.441 34.4999 51.2385 34.258 51.9169 33.8047C52.5952 33.3515 53.124 32.7072 53.4362 31.9535C53.7484 31.1997 53.8301 30.3703 53.6709 29.5702C53.5117 28.77 53.1189 28.035 52.542 27.4581C51.9651 26.8812 51.2301 26.4883 50.4299 26.3292C49.6297 26.17 48.8003 26.2517 48.0466 26.5639C47.2929 26.8761 46.6486 27.4048 46.1954 28.0832C45.7421 28.7615 45.5002 29.5591 45.5002 30.3749V34.4999H49.6252ZM41.8335 41.8333H49.6252C51.1662 41.8333 52.6726 42.2902 53.954 43.1464C55.2353 44.0025 56.234 45.2194 56.8237 46.6432C57.4135 48.0669 57.5678 49.6336 57.2671 51.145C56.9665 52.6564 56.2244 54.0448 55.1347 55.1345C54.045 56.2241 52.6567 56.9662 51.1452 57.2669C49.6338 57.5675 48.0672 57.4132 46.6434 56.8235C45.2197 56.2337 44.0028 55.2351 43.1466 53.9537C42.2905 52.6724 41.8335 51.166 41.8335 49.6249V41.8333ZM45.5002 45.4999V49.6249C45.5002 50.4408 45.7421 51.2383 46.1954 51.9166C46.6486 52.595 47.2929 53.1237 48.0466 53.4359C48.8003 53.7481 49.6297 53.8298 50.4299 53.6707C51.2301 53.5115 51.9651 53.1186 52.542 52.5417C53.1189 51.9648 53.5117 51.2298 53.6709 50.4297C53.8301 49.6295 53.7484 48.8001 53.4362 48.0463C53.124 47.2926 52.5952 46.6484 51.9169 46.1951C51.2385 45.7418 50.441 45.4999 49.6252 45.4999H45.5002Z" fill="url(#paint0_linear_365_903)"/>
</g>
<defs>
<linearGradient id="paint0_linear_365_903" x1="24.5" y1="23" x2="57" y2="55.5" gradientUnits="userSpaceOnUse">
<stop stop-color="#FF4747"/>
<stop offset="0.86" stop-color="#F8C0C0"/>
</linearGradient>
<clipPath id="clip0_365_903">
<rect width="44" height="44" fill="white" transform="translate(18 18)"/>
</clipPath>
</defs>
</svg>
